<svg id="Ebene_1" data-name="Ebene 1" xmlns="http://www.w3.org/2000/svg" viewBox="0 0 1926.11 1083.13">
  <defs>
    <style>
      .cls-1 {
        fill: #f8e916;
      }

      .cls-2 {
        fill: #1d1d1b;
      }
    </style>
  </defs>
  <rect class="cls-1" width="1926.11" height="1083.13"/>
  <g>
    <path class="cls-2" d="M591.3,430c.12.3,1.14-1,1.37-1.23C592.06,428.76,591,430.37,591.3,430Z" transform="translate(-0.03 5.8)"/>
    <polygon class="cls-2" points="585.2 435.62 585.72 435.15 584.09 435.96 585.2 435.62"/>
    <path class="cls-2" d="M581.92,426.89c-1.56,2.43,1.51.7,1.44,2l-.33.57,1.77-1.5C583.84,427.6,581.9,427.94,581.92,426.89Z" transform="translate(-0.03 5.8)"/>
    <path class="cls-2" d="M584.18,420.68c-.62.94-1,.39.19.63a2,2,0,0,1,.11-.28A.92.92,0,0,1,584.18,420.68Z" transform="translate(-0.03 5.8)"/>
    <path class="cls-2" d="M584.48,421c.4.24.38-.91,0,0Z" transform="translate(-0.03 5.8)"/>
    <path class="cls-2" d="M582.44,420.1l1.11-.35c.33-.58,0-1.05.48-1.27C583.2,418.48,582.87,419.05,582.44,420.1Z" transform="translate(-0.03 5.8)"/>
    <path class="cls-2" d="M580.63,421.3l.52-.11C581.29,420.94,581.29,420.82,580.63,421.3Z" transform="translate(-0.03 5.8)"/>
    <path class="cls-2" d="M582.24,421l-1.09.23c-.24.4-.84,1.11.44,0C581,421.75,581.63,421.22,582.24,421Z" transform="translate(-0.03 5.8)"/>
    <path class="cls-2" d="M582.24,421.54c-.15.69-.07,1.28-1.18,1.62C582.21,423.63,583.39,422,582.24,421.54Z" transform="translate(-0.03 5.8)"/>
    <path class="cls-2" d="M579.81,429l-.2.93.93-.46C580.08,429.68,580.38,428.28,579.81,429Z" transform="translate(-0.03 5.8)"/>
    <path class="cls-2" d="M580.52,416.48c-.43.44-.9,1.36-1.38,2l.8-.23A3,3,0,0,1,580.52,416.48Z" transform="translate(-0.03 5.8)"/>
    <path class="cls-2" d="M579.14,418.46l-1.19.34C578.32,419.29,578.73,419,579.14,418.46Z" transform="translate(-0.03 5.8)"/>
    <polygon class="cls-2" points="578.44 429.42 580.72 428.5 578.26 429.31 578.44 429.42"/>
    <polygon class="cls-2" points="578.58 420.54 579.8 419.73 577.89 420.88 578.58 420.54"/>
    <path class="cls-2" d="M577.16,413.79c1-.69,1-1.74,1.69-2.09-.49-.14-1.44.35-2.3.8C577.16,412.37,577.39,412.73,577.16,413.79Z" transform="translate(-0.03 5.8)"/>
    <path class="cls-2" d="M575.23,413.09a7.57,7.57,0,0,0,1.32-.59A4.18,4.18,0,0,0,575.23,413.09Z" transform="translate(-0.03 5.8)"/>
    <path class="cls-2" d="M577.27,417.82a3.57,3.57,0,0,0,.73-1.66l-.91,1.47Z" transform="translate(-0.03 5.8)"/>
    <path class="cls-2" d="M577.06,417.67l0,0c-.2-.22-.32-.38-.38-.45Z" transform="translate(-0.03 5.8)"/>
    <path class="cls-2" d="M577.32,417.87l-.05-.05C577.18,418,577.16,418,577.32,417.87Z" transform="translate(-0.03 5.8)"/>
    <path class="cls-2" d="M578.15,421.29c-.93.46-2.23.69-2.58,2.32C576.56,422.91,576.75,422,578.15,421.29Z" transform="translate(-0.03 5.8)"/>
    <path class="cls-2" d="M576.17,419.7l.29.77a3.92,3.92,0,0,1,1.07-1.16Z" transform="translate(-0.03 5.8)"/>
    <polygon class="cls-2" points="575.51 425.69 576.14 425.51 576.03 425.22 575.51 425.69"/>
    <path class="cls-2" d="M575.12,415.11a1.31,1.31,0,0,1-1.39,0,2,2,0,0,0,.6,1.2C574.73,416,575.49,415.35,575.12,415.11Z" transform="translate(-0.03 5.8)"/>
    <path class="cls-2" d="M576,416.47l-.11,0C575.78,416.63,575.78,416.69,576,416.47Z" transform="translate(-0.03 5.8)"/>
    <path class="cls-2" d="M570.88,412.64l-.16.28.21-.21Z" transform="translate(-0.03 5.8)"/>
    <path class="cls-2" d="M574.17,416.62c0,.45.43.25.91,0a1.38,1.38,0,0,1-.75-.26C574.15,416.5,574,416.62,574.17,416.62Z" transform="translate(-0.03 5.8)"/>
    <path class="cls-2" d="M573.91,413a6.2,6.2,0,0,0-.21,1.06C573.94,413.55,574.25,412.71,573.91,413Z" transform="translate(-0.03 5.8)"/>
    <path class="cls-2" d="M576.08,416.07l.08,0C576.33,415.7,576.22,415.84,576.08,416.07Z" transform="translate(-0.03 5.8)"/>
    <path class="cls-2" d="M576.08,416.07a5.36,5.36,0,0,0-1,.52,2,2,0,0,0,.77-.09A3.74,3.74,0,0,1,576.08,416.07Z" transform="translate(-0.03 5.8)"/>
    <path class="cls-2" d="M562.83,420.19c1.08-1.16,2.65-1.74,2.07,0,1.3-.44,4.37-4.67,5.82-7.27a3.3,3.3,0,0,1-2,1.23c-.37.82-.13,2.56-1.52,3.25-1.25,0-.22-.92,0-1.86-1,1.75-2.79,1.39-4.54,3.72l1.3-.23C563.62,419.38,562.92,419.72,562.83,420.19Z" transform="translate(-0.03 5.8)"/>
    <path class="cls-2" d="M571.64,413.93l.35,0a5.53,5.53,0,0,1,.64-2.28,3.64,3.64,0,0,0-1.7,1l.94,1.11Z" transform="translate(-0.03 5.8)"/>
    <path class="cls-2" d="M573,414.83c-1.31,1.15-2.32,1.24-3.21,2.94.72.47,1.39-.7,2.27-.93-1.33-.58.93-.46.82-1.86a1.53,1.53,0,0,1,.86.15,4.58,4.58,0,0,1,0-1.06,1,1,0,0,0,0,.1h0l0,0c-.1.2-.17.31-.14.17,0,0,0,0,0,0a4.86,4.86,0,0,1-.48.45c-.07-.53.25-.38.48-.45,0-.06.12-.12.18-.18s0,0,0,0L572,414C572.05,414.35,572.36,414.55,573,414.83Z" transform="translate(-0.03 5.8)"/>
    <path class="cls-2" d="M572.59,425.92a1.72,1.72,0,0,1,.22-.33C572.61,425.69,572.49,425.78,572.59,425.92Z" transform="translate(-0.03 5.8)"/>
    <path class="cls-2" d="M572.84,424.76c.23-.11.75-.58.88-.23-.13.58-.55.62-.91,1.06.45-.21,1.34-.48,1.42-1.52l-.23.11a7.17,7.17,0,0,1,1.06-3A28.31,28.31,0,0,0,572.84,424.76Z" transform="translate(-0.03 5.8)"/>
    <path class="cls-2" d="M572.59,420.1l-1.42-.12-.54,1.52.57-.7C571.46,421.5,572.08,420.57,572.59,420.1Z" transform="translate(-0.03 5.8)"/>
    <polygon class="cls-2" points="571.31 417.71 572.62 416.44 570.43 417.94 571.31 417.71"/>
    <polygon class="cls-2" points="570.03 416.9 571.11 415.74 570.19 416.2 570.03 416.9"/>
    <path class="cls-2" d="M493.15,370.42l-.55.12A1.35,1.35,0,0,0,493.15,370.42Z" transform="translate(-0.03 5.8)"/>
    <path class="cls-2" d="M494.94,372.11l.56-.55C495.13,371.81,494.89,372,494.94,372.11Z" transform="translate(-0.03 5.8)"/>
    <path class="cls-2" d="M542.07,387.07c.6-1.45,1.68-3.54.56-2.16l-1,1.41C542.07,386.32,542.15,386.64,542.07,387.07Z" transform="translate(-0.03 5.8)"/>
    <path class="cls-2" d="M516.2,378.35l-.24.49,1.34-1Z" transform="translate(-0.03 5.8)"/>
    <path class="cls-2" d="M511.23,383.55l.24-1.28A3.74,3.74,0,0,0,511.23,383.55Z" transform="translate(-0.03 5.8)"/>
    <path class="cls-2" d="M481.8,363l-1.46,1.08C480.82,364.49,481.19,363.64,481.8,363Z" transform="translate(-0.03 5.8)"/>
    <path class="cls-2" d="M558,401.5a2.17,2.17,0,0,0-.12-1.49C557.64,401.1,557,402.5,558,401.5Z" transform="translate(-0.03 5.8)"/>
    <path class="cls-2" d="M506,357.14a1.83,1.83,0,0,0-.92.6A1.46,1.46,0,0,0,506,357.14Z" transform="translate(-0.03 5.8)"/>
    <path class="cls-2" d="M557,399.21c-.06.18-.06.29-.1.45.43,0,.82,0,1,.35C558.1,399.2,558.07,398.57,557,399.21Z" transform="translate(-0.03 5.8)"/>
    <path class="cls-2" d="M445.94,330c0-.08,0-.14.05-.23C445.83,330,445.86,330,445.94,330Z" transform="translate(-0.03 5.8)"/>
    <path class="cls-2" d="M446.69,307.5a1.17,1.17,0,0,1,.53.29C447.22,307.63,447.08,307.52,446.69,307.5Z" transform="translate(-0.03 5.8)"/>
    <path class="cls-2" d="M566,406.56c.32.12.17-.11,0,0Z" transform="translate(-0.03 5.8)"/>
    <path class="cls-2" d="M562.67,412.76a2.82,2.82,0,0,0-.65.56A3.47,3.47,0,0,1,562.67,412.76Z" transform="translate(-0.03 5.8)"/>
    <path class="cls-2" d="M547.49,405.29s0,0,0,0C547.33,405.59,547.36,405.53,547.49,405.29Z" transform="translate(-0.03 5.8)"/>
    <path class="cls-2" d="M565.84,407.47a1.83,1.83,0,0,0,0-.65A1.78,1.78,0,0,0,565.84,407.47Z" transform="translate(-0.03 5.8)"/>
    <path class="cls-2" d="M566.33,406.81a2.86,2.86,0,0,0,.1.31C566.65,406.93,566.74,406.77,566.33,406.81Z" transform="translate(-0.03 5.8)"/>
    <path class="cls-2" d="M565.6,406.34a.7.7,0,0,1,.27.48.45.45,0,0,1,.12-.26A2.53,2.53,0,0,1,565.6,406.34Z" transform="translate(-0.03 5.8)"/>
    <path class="cls-2" d="M468.7,343.61c0-.05,0-.1.06-.17C468,343.78,468.22,343.78,468.7,343.61Z" transform="translate(-0.03 5.8)"/>
    <path class="cls-2" d="M524,395.25s.06,0,.09,0v-.07Z" transform="translate(-0.03 5.8)"/>
    <path class="cls-2" d="M522.29,395.48c1.78-1.31,1.82-.93,1.8-.34l3-4Z" transform="translate(-0.03 5.8)"/>
    <path class="cls-2" d="M488.38,366.94l-.42,1.7c-2.41,1.31-2.36.18-3.23,2.33,3.65-4,2.73,1.63,6.37-2.4l-.35,1.21c-.08-.14-.31.09-.39,0-.92,2.64,3.15-2.47,3.65-1a1.65,1.65,0,0,1-.86,1.71l1.66-.34c.16.27-.52.94-.67.67l1.47.7-.11.11a22.12,22.12,0,0,1,2.52-1.42c-.2.85-.52.3-.89.88l1.52-.42c-.65,1.29-2.09,1.85-2.42,1.31-2.94,4.63,1.44-.56.69,3l-1.07,0c-1.62,2.68-.4,2.26-1,4.32.49-.91,1.77-4.88,3.37-5.28-.07.48.07.86,1.17.36-1.26,1.47-.57,1.43,0,1.76l-1.71,1.91c1-.12,1.81-1.14,2.86-1.75.4.68-.78,2.28-1.74,3.66.64,1.09,1.45-3,2.85-2.38.11,1.39,1.32,1.06,3.23.69-.05,1.12-1.12,1.1-1.41,1.82l1.81-1.14c.08.14-.37.58-.59.8.91-.25,1.7-1.9,2.78-1.89,2-2-1.42,4.22,1.44,2.47-.28.71-1.12,1.1-1.71,1.9a14.32,14.32,0,0,0,4.62-1.76l-.36,1.91c.72-1.92,2.9-3,4.73-3.92.41-.87.78-1.63.92-2l1.87-.2a5.78,5.78,0,0,1-1.69,1.67l.58-.31c-.28,1-1.42,2-2.61,2.84.22-.49.45-1,.69-1.5a20.84,20.84,0,0,0-3.54,3.25,1.45,1.45,0,0,1,.77-.25,3.35,3.35,0,0,0-.76.74c-.15.23.32-.11.91-.47l-1.65,2.35.8-.81.09,2.44c2.79-1.38,6.35-3.89,8.55-3.54-1.72,1.27-2.31,2.52-4,4.37,1.32-2.32-1.85-.12-2.24-1.17.21.55-.65,1.37-1,1.59l2.89-.65c-1.36,1.51-.71,1.39-.92,2.33,2.37-3.26,2.74-1.16,4.09-1.62-.85,1.05-1.88,2-2.33,1.15-1.24,2.91,4-2.74,3.06-.18-.18-.11-.13-.35-.64.12,1.16-.58,1.45.93.47,1.63l-.18-.12a3.43,3.43,0,0,0,5.62.41c-.27.34-2.82,3-3.34,3.44l9.41-7c-2.08,2.07-6,7.88-8,8.36,0,.54,0,1.18,1.19.86.1-.46,2.33-3.56,2.74-3.56-1.48,3-.68,1.71-1.7,4.5.15-.7,3.44-3.91,3.76-3.44-.52.46-2.93,3.44-3.39,3.67l4-2.51c-.79.39-2.55,2.84-3.15,4,.47-.76.83.83,1.4.73l.25-1.16c.71,1.51,5.28-3.79,6.27-2.62-.75.58-4.09,4-3.87,5,1.77-1.51,8.44-7.35,10.61-7.81l-.66,1.16,1.76-.46a136.14,136.14,0,0,1-11.5,8c-.25,1.16-.89,1.27-.17,1.74a1.59,1.59,0,0,1-1.82,1l1,1.91c1.7-2.09,2.92-1,4.33-2.78l-3.46.69c1.69-2.09,5.94-4.95,6.7-3.66-.43,1-3.34,3.44-3.9,4.13.74-.58,2.17-.45,1.84.13l-1.4.69c-.07,1.28,3.31-1.85,2.34.71.14.34-1.53,3.25-.44,2.09a83.67,83.67,0,0,1,9.52-11.42,24.35,24.35,0,0,1-1.34,4.73c-1.17,2.17-4.36,3.8-5.37,5.67a6.13,6.13,0,0,1,1.6-1.18c-.15.7-1.6,1.63-.82,1.87,1.88-2,1,1.16,1.78-1.51,1.06-.11.21.93.94,1.4.95-1.51,4.51-4,5.57-4.14a9.18,9.18,0,0,0-1.17,1.65c1,1.17.77,2.63,1.8,3.56-.33.58-.35,1.62-1.33,2.32.47-.23,1.21-.81,1.58-.58-.92,2.33-1-.35-2.34,2.21,1.08-1.16,2.27-.93,3.38-1.27,1.46-2-.76-1.28-1.87-.94,2.21-2.55,5.33-4.52,7.45-4.75,1.42.13-1,2-.58,1.75,1.25,1.87,5.26-3.24,5-.22-.87,2.09-2.78,3.25-3.68,4.53-1.24,0-.2-2-.74-2.33l-.07,1.28c-.69.34-1.52.34-1.38-.35-.81,1.85,2.54,2.68,2.64,5.13.69-.35,1.57-.58,2-1.39l-.59-.12c.76-1.63,2.32-1.16,2.34-2.21,1.34-.46,3.2-1.38,3.31,0l-1.46,2c.45-.55.46-1.53-.24-1.15,1-.55-1,3.51,1.43,1.39l.59-1.75c1.34-.46,3.72-1.85,3.88-.68,1.28-2.1-.33.07,1-2.48-1.89,3-1.62-1.6-3.38,1.77,1.67-2.91.07-1.78,1.27-4.46-.51.63-.79,1.37-1.09.58a5.75,5.75,0,0,1-.59.43.22.22,0,0,1,0-.08.38.38,0,0,0,0,.1c-.11.07-.13.09,0,0a3.89,3.89,0,0,1-.52,1.17c-1.5,1.17-2.36.34-3.29.81-.08-.58.75-.58,1.13-1.39l-1.39.69c1.13-1.4,1.06-3,2.54-3.14l-.66-.67c.25-1.12-.06-1.92-.91-1.66-.08-.58-2.15.77-.94,0l-1.84-.12.29-.35c-1-1.12-4.21.29-3.34-3.25-.67,0-1.41.11-1.7-.81l.9-1.28c-.83,0-.4-2.4-1.67-1.36,2.23-3.6-1.7-2.68-2-4l-1.36,1.5c-.5-.58-1.43-.63-2.67-.63l-1.13,1.4c-1.58.58-.75-2.34-1.84-3,.52-.46.65-.11.55.35,1.49-4.06-4.38.11-3.5-3-.69.27-.73-.06-.62-.56,0,0,.07,0,.12,0s0-.07-.09-.11c.09-.33.2-.71.26-1a4.49,4.49,0,0,0-.32,1,2,2,0,0,0-1.28-.17l1.14-1.57s-.06,0-.11,0c.17-.8-.83.48-1.62,1.71a5.09,5.09,0,0,0-1.16.53c1.79-2.55-1.48.11.37-2.68-1.26,1.05-2.31-.39-4.7,2,.28-.34.33-.58.51-.46-.08-.58-.16-1.16-1.09-.7l1.46-2-2.89,1.85a5.27,5.27,0,0,1,2.59-3.37c-3,1.27-1.58.07-4.37,1.46l1.09-1.16c-.37-.23-2.27.92-1.61-.24,1.24-2.9-3.32-3.42-3.35-7.15-2.69,3.84.51-2.33-1.94.34.62-.93.77-1.63,1.7-2.09-1.66,0-.29-2.56-2.94-.82.62-.93,1.26-1.05,1.6-1.63-.24.12-.93.47-.6-.12s.74-.58,1.21-.81c-1.09-.7-3.42,1.78-5.58,4.13.5-1.56.12-1.62-1.61-.34.51-.94.94-2,1.79-1.77-.24-.41-1.07-3-2.78-1.05.32-.59-.35-.56-.63-.41-.66-.78-.58-1-1.48-1.47l-.07.49c-2.32,2.08-1.07,0-1.92-.26l.23-.22c.07-2.88-1.3.29-1-2.81l-1.18,1.51c-2.83,3,.39-2.89-1.44-2.38l-.43,1.08c-1.36.69,2.47-5.29,2.37-6.06.14-.35.53-.3.83-.39.46-2.82-1.79,1.77-3,1.48.73-1.16,2.46-2.43,2.05-3.11.44-1.08-4.53,1.89-3.61-.75-.51.94-1,1.87-1.93,2.13-.85-.24,1-4.4-1.74-2.38a2.63,2.63,0,0,1,.42-.72c-1,.25-2.42-.23-3.86.88,3.91-5.38-5-.05-1-4.66l-1.63-1,.45-.44c-.64-1.09-1.92-.26-3.2.58.06-.5.59-.8.82-1-.52-2.07-.82-2-3.93-.65l1.19-1.6c-1.06.61.12-4-2.69-3.39a2.84,2.84,0,0,1,.72-.55c-3,.5.11-7.18-5.16-2.19l-2.13.51c.88,1.5-2.23,2.21-2.51,3.56-.76-.11.16-2.75,1-2.51l-.14.36c2.68-2.65-.68-2.35,1-4.26-2.57-2-3.6-5.63-5.79-7.75l-1.65,2.44-.7-.82c.24-.69,1.22-2,1.71-1.38.79-1.52-1.86.21-2.3.68-.34-1.87,2.67-2.2,2.38-2.55l-.61-.24-.12.35c-1.16.58-2,1.51-2.62.8-.05-.82,1-1.56.86-1.79.14-.16.15-.28-.2-.29l-.85-1.07-1.11,2.1c-1.19.47-.87-.92-2.12,1.47,2-3.65-2.82-4.36-2.42-5.67-1.73.72-2.33.17-3-.65-.12.53-1.71,2.59-2.16,1.77,3.75-3.84.31-2.8,2.3-6.18-1.2,2.35-2.29-1.15-3.92,2.24-.27-.81,1.28-1.54,1.69-2.86-2.68.43-2-3.53-4.1-4.41-.48.51-.92,1.56-1.95,2.05l1.45-3.4c-.55,0-3,2.81-1.94.46-.31.52-.77,1.3-1.13,1.28-.94-5.34-8.34-3.51-7.35-11.17-.46,1.41-.84,1.26-1.2,1,0,.43-1.15,1.3-1.73,2.06l.38-3.17c-2,1.78-1.56-1.12-3.36.67l.73,0c-2.53,1.77-3.55,5.71-6.15,8.53,2.86-2-1.61,5.26,2.62,2.49-.28.79-1,.77-1.46,1.54,1.34-1,1.88-1,2,.08l-.33.25c1.93,1.14,1.58,3,2.75,5.43l1.1-1.56c.24.54-.07,1.07-.19,1.59,2.34-1.77-1-1.1,1.47-3.13-2,3.37,2.8,2.5.29,6.12.61.56,1.26-1.81,1.86-1.25l-.61,1,1.15-1c.25.55-.52,1.84-1.16,2.62,0-.18-.47,0-.63-.06-.39,1.51,1.8.93,1.68,1.43l-.12-1.07c2.42.63,3.46,3.59,6.67,3.18l.47-.78c2.33-.17.35,1.61,2.22,2.22l-.19.11c.86-.43,1.52-.45,1.83-.05-1,.49-.69,2.1-1.9,2.58,2.52-.17,1.58-.47,4.65-2.21l-.76,1.3c1.18-.75,1.67-1.26,2.61-1-1.4.47-1.05,2.08-2.78,2.81-.69,3.7,4.28-.63,1.83,3.53,3.34-2.53.25-2.8,1.19-3.15.57-1.28,2.56-1.84,2.74-1.14.39.47-2.66,4.64-1.46,5.58-.1-.11-.31.12-.42,0-.25,1.17,1.78-.33,1.19,1.41,1.92-1.62.6.7,2.75-1.62l-1.53-.36c1.14-.11,4.13-2.42,3.94-.2a7,7,0,0,1-1.85,1c-.32,1,1,0,.63,1-2.16,2.32-1.73-.59-4,.68-.56,1.28,2.72-.69.15,1.63,3.32-2.9.77,1.4,3.74-.44l-1.3,1.39c.32-.12,1.17-.58,1.36-.34l-2,1.5c2-1,0,2.44,1.37,2.1-1.31-1.05,1.21-2,1.58-3.48,3.23-.57-2.35,4.53,0,5.36-.41,0-.15-1.63.8-2a4.43,4.43,0,0,1-.41,2.45c1.42.71,1.11-1.63,2.36-2.08-1.12,2.09,1.19-.22,2.18-.34l-1.26,1.46c.52,2.09,3-2.73,3.2-.57l-2.26,1.59h1.08l-1.57,1.55c1.74-.64,1.68-.14,1.94.9.73-1.16,2.38-2.58,3-2.11-.35,1.21-1.42,1.19-.41,1.7-1,.75-2.18,1.72-1.37.06-.45.44-1,.76-1.43,1.19-.43,1.37.89,1.17,1.2,1.41a.72.72,0,0,1,0-.62l3-1a2.62,2.62,0,0,1-1.33,1.32c.38,0,1.13-.47,1.59-.29-1.12,1.11-2.15,2.35-3.15,2.47l2.29-.32c-.37.58-.64,1.92-1.16,2.23,0,1.25,3.55-.95,3.6.7a1.51,1.51,0,0,1,.84-.35c.56,1,0,3,2.35,2.21l-1.31,2.59c1.16.15,1.6-3.3,3.52-3,1.46.07-1.24,2.09-1.45,2.95,1.36-.7,4-2.23,3.29.19C488.69,367.49,488.76,367,488.38,366.94Zm9.89,6.92c-.45.16-1.61.8-1-.17C498.92,372.19,498.38,373.12,498.27,373.86Zm16.83,8.45c-.55.37-.54-.05-.29-.8C515.08,381.54,515.22,381.75,515.1,382.31Zm47.23,23.15-.08.06C562.35,404.61,562.29,405,562.33,405.46Zm.26,1.34a1.42,1.42,0,0,0,.57-.57c-.38.32-.58.18-.7-.1C562.19,406.56,562.07,406.92,562.59,406.8Zm-88-75.23-.17.52C473.74,332.2,474.17,331.9,474.64,331.57Z" transform="translate(-0.03 5.8)"/>
    <path class="cls-2" d="M511.81,383a6.5,6.5,0,0,1,.61-.86A1.38,1.38,0,0,0,511.81,383Z" transform="translate(-0.03 5.8)"/>
    <path class="cls-2" d="M482.07,362.82s0,0,0-.05a3.08,3.08,0,0,0-.26.24Z" transform="translate(-0.03 5.8)"/>
    <path class="cls-2" d="M539.26,408.23a2.31,2.31,0,0,1,.33-1C539.27,407.54,539.09,407.91,539.26,408.23Z" transform="translate(-0.03 5.8)"/>
    <path class="cls-2" d="M569.05,408.06l-.85-.07c.32.15.13.54.06.88C568.54,408.52,568.87,407.94,569.05,408.06Z" transform="translate(-0.03 5.8)"/>
    <path class="cls-2" d="M565.76,421c.23-.11.18.12.41,0l.57-.7A.69.69,0,0,0,565.76,421Z" transform="translate(-0.03 5.8)"/>
    <path class="cls-2" d="M565.34,413.33c-1,1.26-.34,1.13.23,1.22,0,0-.06,0-.07-.06C567.1,412.87,566.22,413.1,565.34,413.33Z" transform="translate(-0.03 5.8)"/>
    <path class="cls-2" d="M565.69,414.58a.47.47,0,0,1,.36.26C566.69,414.19,566,414.58,565.69,414.58Z" transform="translate(-0.03 5.8)"/>
    <path class="cls-2" d="M564.33,406.88c-.1.47,1.47-1.47,1.13-.89C567,404.6,562.67,406.88,564.33,406.88Z" transform="translate(-0.03 5.8)"/>
    <polygon class="cls-2" points="562.1 423.43 563.28 421.8 562.02 422.84 562.1 423.43"/>
    <path class="cls-2" d="M560.21,414l.22.93a.93.93,0,0,1,.6-.38C560.72,414.19,560.58,413.55,560.21,414Z" transform="translate(-0.03 5.8)"/>
    <path class="cls-2" d="M561,414.56a.51.51,0,0,0,.69.15A1,1,0,0,0,561,414.56Z" transform="translate(-0.03 5.8)"/>
    <polygon class="cls-2" points="560.91 423.19 561.01 422.73 560.69 422.26 560.91 423.19"/>
    <path class="cls-2" d="M554.19,408.28l-1-.12c-.51.46-.61.93-.2.93C553.44,408.86,553.85,408.87,554.19,408.28Z" transform="translate(-0.03 5.8)"/>
    <path class="cls-2" d="M552.52,414.1a5.27,5.27,0,0,1,.71-1.4l-1.64,1.86Z" transform="translate(-0.03 5.8)"/>
    <path class="cls-2" d="M550.28,412.92c-.52.47-2.22.7-1.31,1.28C549.48,413.74,550.49,413.86,550.28,412.92Z" transform="translate(-0.03 5.8)"/>
    <polygon class="cls-2" points="542.71 408.03 542.89 408.15 545.53 405.05 542.71 408.03"/>
    <path class="cls-2" d="M527.89,402.26c.12,1.39,1.83-1.75,1.71-.24.81-.57.09-1.23.82-1.7C529.3,400.69,529.44,400.05,527.89,402.26Z" transform="translate(-0.03 5.8)"/>
    <path class="cls-2" d="M530.42,400.32a4.76,4.76,0,0,0,.64-.27A2.07,2.07,0,0,0,530.42,400.32Z" transform="translate(-0.03 5.8)"/>
    <polygon class="cls-2" points="446.31 310.11 446.38 309.05 445.8 310.36 446.31 310.11"/>
    <path class="cls-2" d="M443.43,305.78l1.59-2.06-1.83,1.53C443.37,305.25,443.73,305.27,443.43,305.78Z" transform="translate(-0.03 5.8)"/>
    <path class="cls-2" d="M496.19,379l.45-.44c.36-.58.28-.72.12-1Z" transform="translate(-0.03 5.8)"/>
    <polygon class="cls-2" points="490.84 377.61 490.92 377.75 492.25 375.79 490.84 377.61"/>
    <path class="cls-2" d="M483.39,369.28c.16.27.77.1.93.38C483.55,369.55,485.24,367,483.39,369.28Z" transform="translate(-0.03 5.8)"/>
  </g>
  <g>
    <path class="cls-2" d="M595.79,309.2c.31,0-.59-1.43-.7-1.71C594.88,308,596,309.57,595.79,309.2Z" transform="translate(-0.03 5.8)"/>
    <polygon class="cls-2" points="593.75 320.49 593.49 319.85 593.74 321.63 593.75 320.49"/>
    <path class="cls-2" d="M590.17,316.67c1.74,2.29,1.07-1.13,2.21-.61l.43.51-.84-2.16C591.37,315.16,591.11,317.06,590.17,316.67Z" transform="translate(-0.03 5.8)"/>
    <path class="cls-2" d="M585.2,312.39c.67.9.06,1.07.62,0l-.22-.19A.94.94,0,0,1,585.2,312.39Z" transform="translate(-0.03 5.8)"/>
    <path class="cls-2" d="M585.6,312.24c.34-.29-.71-.67,0,0Z" transform="translate(-0.03 5.8)"/>
    <path class="cls-2" d="M584.16,313.79v-1.14c-.43-.51-.95-.39-1-.9C582.91,312.52,583.34,313,584.16,313.79Z" transform="translate(-0.03 5.8)"/>
    <path class="cls-2" d="M584.72,315.87l0-.51C584.59,315.15,584.48,315.1,584.72,315.87Z" transform="translate(-0.03 5.8)"/>
    <path class="cls-2" d="M584.88,314.28l-.11,1.08c.3.36.77,1.16.1-.42C585.24,315.7,585,314.93,584.88,314.28Z" transform="translate(-0.03 5.8)"/>
    <path class="cls-2" d="M585.41,314.48c.59.38,1.14.51,1.13,1.66C587.3,315.25,586.17,313.58,585.41,314.48Z" transform="translate(-0.03 5.8)"/>
    <path class="cls-2" d="M591.44,319.34l.78.52-.15-1C592.14,319.35,591,318.58,591.44,319.34Z" transform="translate(-0.03 5.8)"/>
    <path class="cls-2" d="M580.31,314.3c.27.54,1,1.3,1.4,2l0-.82A3.22,3.22,0,0,1,580.31,314.3Z" transform="translate(-0.03 5.8)"/>
    <path class="cls-2" d="M581.71,316.26l0,1.22C582.24,317.3,582.08,316.82,581.71,316.26Z" transform="translate(-0.03 5.8)"/>
    <polygon class="cls-2" points="586.18 324.48 585.99 322.06 586.02 324.61 586.18 324.48"/>
    <polygon class="cls-2" points="578.13 321.25 577.74 319.85 578.25 322.01 578.13 321.25"/>
    <path class="cls-2" d="M576.89,316.47c-.35-1.14-1.31-1.52-1.42-2.28-.28.4-.1,1.46.06,2.4C575.59,316,576,315.9,576.89,316.47Z" transform="translate(-0.03 5.8)"/>
    <path class="cls-2" d="M575.71,318a8.39,8.39,0,0,0-.18-1.42A4.52,4.52,0,0,0,575.71,318Z" transform="translate(-0.03 5.8)"/>
    <path class="cls-2" d="M580.59,317.75c-.22-.29-.79-1.08-1.3-1.25l1.07,1.35Z" transform="translate(-0.03 5.8)"/>
    <path class="cls-2" d="M580.4,317.9l0,0a3.68,3.68,0,0,1-.51.19Z" transform="translate(-0.03 5.8)"/>
    <path class="cls-2" d="M580.65,317.73l-.06,0C580.7,317.89,580.74,317.93,580.65,317.73Z" transform="translate(-0.03 5.8)"/>
    <path class="cls-2" d="M584,318.16c.15,1,0,2.29,1.37,3.18C585,320.19,584.23,319.69,584,318.16Z" transform="translate(-0.03 5.8)"/>
    <path class="cls-2" d="M582,319.42h.78A4.39,4.39,0,0,1,582,318Z" transform="translate(-0.03 5.8)"/>
    <polygon class="cls-2" points="581.94 325.86 581.96 325.23 581.67 325.23 581.94 325.86"/>
    <path class="cls-2" d="M577.51,318.81a1.24,1.24,0,0,1-.37,1.29,1.78,1.78,0,0,0,1.26-.15C578.18,319.46,577.84,318.54,577.51,318.81Z" transform="translate(-0.03 5.8)"/>
    <path class="cls-2" d="M579,318.49s0,.07,0,.12S579.14,318.74,579,318.49Z" transform="translate(-0.03 5.8)"/>
    <path class="cls-2" d="M574.08,321.88l.2.24-.13-.26Z" transform="translate(-0.03 5.8)"/>
    <path class="cls-2" d="M578.62,320.19c.42.14.35-.31.23-.85a1.19,1.19,0,0,1-.45.61C578.5,320.17,578.58,320.31,578.62,320.19Z" transform="translate(-0.03 5.8)"/>
    <path class="cls-2" d="M575.26,319.2a6.53,6.53,0,0,0,.9.56C575.76,319.37,575.08,318.79,575.26,319.2Z" transform="translate(-0.03 5.8)"/>
    <path class="cls-2" d="M578.66,318.25s0-.07,0-.09C578.39,317.89,578.49,318,578.66,318.25Z" transform="translate(-0.03 5.8)"/>
    <path class="cls-2" d="M578.66,318.25a5.56,5.56,0,0,0,.19,1.09,1.62,1.62,0,0,0,.13-.73C578.89,318.52,578.77,318.38,578.66,318.25Z" transform="translate(-0.03 5.8)"/>
    <path class="cls-2" d="M578.73,331.87c-.76-1.39-.85-3,.57-1.9,0-1.35-3-5.63-5-7.85a3.41,3.41,0,0,1,.56,2.3c.64.62,2.3,1,2.55,2.51-.35,1.15-.91-.12-1.7-.62,1.31,1.52.5,3,2.14,5.44l.14-1.27C578.21,330.86,578.34,331.62,578.73,331.87Z" transform="translate(-0.03 5.8)"/>
    <path class="cls-2" d="M575.46,321.62l.14-.31c-.41-.08-.92-.51-1.91-1.37a3.92,3.92,0,0,0,.46,1.92l1.27-.49Z" transform="translate(-0.03 5.8)"/>
    <path class="cls-2" d="M576.66,320.68c.68,1.6.49,2.56,1.78,4,.63-.51-.25-1.53-.21-2.42-.9,1-.16-1-1.46-1.39a1.38,1.38,0,0,1,.37-.74,5,5,0,0,1-1-.34l.08.08h0v0c.16.16.24.26.12.19s0,0,0,0a5.15,5.15,0,0,1,.28.59c-.5-.12-.27-.35-.28-.59l-.11-.23h0l-.64,1.47C576,321.38,576.23,321.16,576.66,320.68Z" transform="translate(-0.03 5.8)"/>
    <path class="cls-2" d="M586.62,324.89a2,2,0,0,1-.24-.32C586.41,324.79,586.46,324.93,586.62,324.89Z" transform="translate(-0.03 5.8)"/>
    <path class="cls-2" d="M585.64,324.26c0-.26-.32-.9,0-.89.48.31.41.71.7,1.2a2,2,0,0,0-1-1.83l0,.25a7.6,7.6,0,0,1-2.44-2A31.14,31.14,0,0,0,585.64,324.26Z" transform="translate(-0.03 5.8)"/>
    <path class="cls-2" d="M581.34,322.85l-.5,1.28,1.22,1-.47-.76C582.29,324.37,581.62,323.49,581.34,322.85Z" transform="translate(-0.03 5.8)"/>
    <polygon class="cls-2" points="573.5 327.01 572.7 325.37 573.47 327.9 573.5 327.01"/>
    <polygon class="cls-2" points="572.4 327.91 571.64 326.52 571.8 327.53 572.4 327.91"/>
    <path class="cls-2" d="M517.21,381.46V382A1.27,1.27,0,0,0,517.21,381.46Z" transform="translate(-0.03 5.8)"/>
    <path class="cls-2" d="M519.11,380.23l-.41-.66C518.87,380,519,380.26,519.11,380.23Z" transform="translate(-0.03 5.8)"/>
    <path class="cls-2" d="M543.08,340.43c-1.19-1-2.87-2.64-1.86-1.17l1.06,1.38C542.38,340.2,542.7,340.23,543.08,340.43Z" transform="translate(-0.03 5.8)"/>
    <path class="cls-2" d="M529.13,362.06l.41.36c-.25-.55-.47-1.07-.68-1.55C528.94,361.24,529,361.64,529.13,362.06Z" transform="translate(-0.03 5.8)"/>
    <path class="cls-2" d="M532.9,368.18l-1.12-.58A4.1,4.1,0,0,0,532.9,368.18Z" transform="translate(-0.03 5.8)"/>
    <path class="cls-2" d="M508.31,390.17l.75,1.64C509.52,391.47,508.79,390.9,508.31,390.17Z" transform="translate(-0.03 5.8)"/>
    <path class="cls-2" d="M560.4,330.1a2,2,0,0,0-1.4-.37C559.94,330.33,561.05,331.4,560.4,330.1Z" transform="translate(-0.03 5.8)"/>
    <path class="cls-2" d="M507.25,365.94a2,2,0,0,0,.39,1A1.49,1.49,0,0,0,507.25,365.94Z" transform="translate(-0.03 5.8)"/>
    <path class="cls-2" d="M558,330.34c.15.11.26.15.4.24.09-.4.22-.76.58-.85C558.31,329.28,557.72,329.11,558,330.34Z" transform="translate(-0.03 5.8)"/>
    <path class="cls-2" d="M472.83,416.15a1.13,1.13,0,0,1-.2-.09C472.78,416.24,472.82,416.22,472.83,416.15Z" transform="translate(-0.03 5.8)"/>
    <path class="cls-2" d="M451.11,414.29a1.41,1.41,0,0,1,.26-.58C451.21,413.73,451.1,413.88,451.11,414.29Z" transform="translate(-0.03 5.8)"/>
    <path class="cls-2" d="M567.17,324.36c.2-.25,0-.19,0,0Z" transform="translate(-0.03 5.8)"/>
    <path class="cls-2" d="M571.94,329.51a2.92,2.92,0,0,0,.33.78A4,4,0,0,1,571.94,329.51Z" transform="translate(-0.03 5.8)"/>
    <path class="cls-2" d="M561.18,341.08h0C561.41,341.33,561.36,341.28,561.18,341.08Z" transform="translate(-0.03 5.8)"/>
    <path class="cls-2" d="M568,324.81a1.74,1.74,0,0,0-.59-.25A1.87,1.87,0,0,0,568,324.81Z" transform="translate(-0.03 5.8)"/>
    <path class="cls-2" d="M567.49,324.14h.31C567.69,323.88,567.56,323.74,567.49,324.14Z" transform="translate(-0.03 5.8)"/>
    <path class="cls-2" d="M566.86,324.66a.64.64,0,0,1,.51-.1.47.47,0,0,1-.2-.2A2.26,2.26,0,0,1,566.86,324.66Z" transform="translate(-0.03 5.8)"/>
    <path class="cls-2" d="M488,397.8l-.16-.09C488.09,398.46,488.12,398.29,488,397.8Z" transform="translate(-0.03 5.8)"/>
    <path class="cls-2" d="M546.43,359.74s0-.06,0-.09l-.07,0Z" transform="translate(-0.03 5.8)"/>
    <path class="cls-2" d="M546.26,361.4c-.82-2-.46-2,.08-1.78l-3-4Z" transform="translate(-0.03 5.8)"/>
    <path class="cls-2" d="M513.11,385l1.51.84c.78,2.59-.26,2.25,1.59,3.63-3.1-4.47,2-2.11-1.09-6.58l1.06.64c-.15,0,0,.31-.12.35,2.28,1.56-1.72-3.6-.27-3.68a1.75,1.75,0,0,1,1.42,1.25v-1.65c.29-.07.78.74.5.81l.92-1.19.08.14a26.25,26.25,0,0,1-.84-2.76c.75.43.18.58.65,1.08l-.1-1.54c1.08,1,1.32,2.46.75,2.62,3.75,4-.24-1.5,2.9.16l-.22,1c2.18,2.24,2,1,3.82,2.07-.74-.71-4.19-3-4.25-4.59.43.2.81.17.56-1,1.12,1.58,1.22.93,1.62.51l1.44,2.12c.08-1-.71-2-1.07-3.15.71-.19,2,1.35,3,2.63,1.13-.3-2.44-2.17-1.65-3.31,1.31.27,1.24-1,1.27-2.84,1,.36.8,1.35,1.41,1.82l-.69-2c.14,0,.46.5.62.77-.05-.92-1.42-2.12-1.19-3.12-1.43-2.44,3.62,2.51,2.57-.65.6.47.8,1.35,1.42,2.13a15.16,15.16,0,0,0-.68-4.81l1.69.88c-1.63-1.22-2.22-3.57-2.65-5.54-.72-.63-1.34-1.19-1.67-1.43l.21-1.81a6.08,6.08,0,0,1,1.19,2.05c-.05-.22-.11-.43-.17-.63a7,7,0,0,1,2.09,3.25l-1.24-1.07a22.54,22.54,0,0,0,2.26,4.24,1.49,1.49,0,0,1-.07-.79,4.1,4.1,0,0,0,.52.92c.19.2,0-.34-.24-1l1.83,2.21-.59-1,2.28.61c-.69-3-2.25-7-1.44-9,.8,2,1.82,2.89,3.18,5-1.86-1.91-.5,1.68-1.55,1.74.54,0,1.12,1,1.25,1.42v-2.89c1.1,1.71,1.13,1.07,1.95,1.53-2.5-3.15-.48-2.89-.62-4.28.78,1.1,1.41,2.33.57,2.51,2.41,2-1.66-4.55.48-2.91-.14.14-.34,0,0,.64-.28-1.25,1.18-1.09,1.61,0l-.15.13c1.35-.33,3.33-2.15,1.63-5.11.25.36,2.11,3.52,2.42,4.14l-4.33-10.85c1.43,2.55,5.9,7.95,5.9,9.92.49.18,1.07.38,1.05-.85-.4-.23-2.75-3.24-2.65-3.63,2.44,2.29,1.41,1.16,3.74,2.94-.6-.35-2.81-4.38-2.31-4.53.31.61,2.5,3.77,2.61,4.27l-1.4-4.46c.18.85,2,3.23,2.95,4.15-.59-.67,1-.51,1-1.07l-1-.59c1.55-.19-2.26-6.07-.94-6.63.36.88,2.73,5,3.64,5.13-1-2.11-4.76-10.11-4.66-12.29l.91,1v-1.78c1.35,3.25,3.87,10.3,4.64,13.18,1,.59,1,1.23,1.56.7a1.65,1.65,0,0,1,.49,2l2-.32c-1.52-2.22-.27-3-1.53-4.88l-.18,3.42c-1.51-2.21-3.14-7.06-1.77-7.36.85.73,2.35,4.17,2.85,4.91-.35-.87.1-2.15.56-1.65l.3,1.5c1.15.47-.91-3.64,1.2-1.93.35,0,2.61,2.45,1.8,1.08a91.43,91.43,0,0,1-8.13-12.45,25.1,25.1,0,0,1,4,2.74c1.7,1.77,2.41,5.26,3.87,6.78a6.78,6.78,0,0,1-.69-1.85c.61.36,1.1,2,1.51,1.35-1.35-2.37,1.3-.55-.95-2.13.16-1,.9.1,1.51-.42-1.15-1.36-2.57-5.47-2.4-6.49a10,10,0,0,0,1.22,1.61c1.31-.52,2.59.15,3.7-.51.45.5,1.4.86,1.79,2-.1-.5-.44-1.38-.13-1.64,1.89,1.6-.56.77,1.42,2.88-.79-1.38-.27-2.4-.31-3.54-1.42-2-1.36.28-1.32,1.42-1.77-2.87-2.78-6.4-2.43-8.45.48-1.28,1.53,1.62,1.44,1.11,2-.55-1.59-5.94,1.12-4.72,1.69,1.49,2.24,3.64,3.17,4.89-.33,1.15-1.86-.47-2.32-.09l1.15.49c.13.75-.08,1.52-.68,1.16,1.47,1.35,3.12-1.44,5.37-.72a3.79,3.79,0,0,0-.75-2.27l-.27.51c-1.28-1.25-.44-2.53-1.39-2.91-.06-1.38-.4-3.41.9-3.05l1.41,2c-.38-.61-1.27-.94-1.11-.17-.23-1.13,2.92,2.12,1.65-.86l-1.44-1.12c0-1.4-.68-4.07.44-3.83-1.56-1.89,0,.33-2-1.8,2.24,2.77-1.91,1,.7,3.73-2.21-2.51-1.62-.66-3.74-2.66.44.69,1,1.19.23,1.21a4.76,4.76,0,0,1,.24.69l-.08,0,.09.06c0,.12,0,.14,0,0a4,4,0,0,1,.93.87c.66,1.78-.32,2.3-.15,3.31-.55-.11-.33-.88-1-1.51l.26,1.52c-1-1.51-2.49-2-2.19-3.39l-.8.38c-1-.59-1.78-.57-1.77.31-.56-.12.13,2.24-.29.85l-.59,1.67-.25-.38c-1.28.52-.83,4-3.85,2.06-.16.62-.27,1.34-1.19,1.31l-1-1.24c-.21.77-2.33-.4-1.68,1.11-2.75-3.21-2.91.75-4.18.67l1,1.74c-.66.28-.94,1.13-1.25,2.29l1,1.49c.15,1.65-2.34,0-3.26.76-.3-.62.06-.63.46-.4-3.39-2.64-1,4.12-3.65,2.34.07.72-.24.66-.68.41a.14.14,0,0,0,0-.12.24.24,0,0,0-.13.05c-.28-.18-.6-.4-.89-.56a4,4,0,0,0,.84.6,1.88,1.88,0,0,0-.46,1.14l-1.18-1.53s0,.05,0,.09c-.7-.4.24.93,1.19,2a5.16,5.16,0,0,0,.22,1.24c-1.94-2.45-.26,1.41-2.4-1.16.67,1.49-.91,2,.78,5-.25-.36-.46-.48-.31-.61-.55-.1-1.11-.2-.9.81l-1.48-1.95,1,3.25a5.65,5.65,0,0,1-2.52-3.43c.49,3.15-.29,1.51.35,4.52l-.83-1.35c-.3.27.33,2.39-.59,1.43-2.41-2-3.93,2.09-7.39,1.06,3,3.62-2-1.14-.12,1.91-.72-.84-1.34-1.18-1.56-2.18-.37,1.55-2.45-.46-1.42,2.51-.73-.84-.7-1.48-1.16-1.95.05.25.22,1-.25.53s-.37-.87-.49-1.37c-.89.83.91,3.71,2.63,6.4-1.35-.91-1.48-.56-.66,1.41-.76-.74-1.67-1.44-1.27-2.17-.43.11-3,.18-1.57,2.32-.47-.46-.59.17-.51.48-.86.4-1.06.26-1.68,1l.44.2c1.45,2.75-.24,1-.64,1.73l-.16-.27c-2.67-.87,0,1.28-2.83.16l1.17,1.52c2.22,3.48-2.61-1.14-2.51.71l.91.7c.38,1.46-4.43-3.74-5.17-3.86-.3-.22-.18-.57-.2-.89-2.55-1.18,1.3,2.17.77,3.25-.94-1-1.77-3-2.5-2.77-.92-.69.86,4.78-1.43,3.21a4,4,0,0,1,1.61,2.38c-.39.73-3.93-2-2.57,1a3,3,0,0,1-.59-.59c0,1-.68,2.23.08,3.88-4.29-5.08-1,4.67-4.56-.3l-1.23,1.3-.33-.53c-1.14.33-.6,1.75-.05,3.17-.46-.19-.64-.76-.81-1-2.05,0-2,.28-1.34,3.54l-1.28-1.51c.38,1.15-3.76-1.11-3.68,1.71a3,3,0,0,1-.39-.82c-.06,2.94-6.76-1.82-3,4.36l.11,2.14c1.57-.47,1.7,2.64,2.92,3.23-.22.69-2.55-.81-2.18-1.55l.31.22c-2-3.18-2.33.07-3.84-2-2.31,2-5.92,2.12-8.28,3.72l2,2.12-.89.47c-.62-.38-1.68-1.6-1-1.94-1.31-1.09-.09,1.83.28,2.35-1.82-.09-1.66-3-2-2.83l-.33.53.32.19c.36,1.23,1.1,2.26.34,2.67-.78-.14-1.32-1.26-1.56-1.22-.13-.16-.24-.2-.31.13l-1.14.57,1.81,1.52c.27,1.24-1,.63,1.06,2.34-3.14-2.66-4.56,1.71-5.74,1.05.43,1.81-.19,2.25-1.07,2.7.49.22,2.22,2.17,1.38,2.43-3.11-4.38-2.63-.88-5.59-3.44,2.09,1.59-1.45,2,1.6,4.21-.82.11-1.31-1.52-2.53-2.16,0,2.66-3.73,1.37-4.87,3.36.44.54,1.43,1.1,1.79,2.18l-3.2-1.84c-.09.56,2.48,3.24.25,2,.48.36,1.21.9,1.16,1.25-2.69.19-3.76,2.25-5,4.09s-2.63,3.42-6.59,3.37c1.47.31,1.33.73,1.09,1.13.45,0,1.4,1,2.2,1.55-1.08,0-2.14,0-3.23,0,2,1.76-1,1.81,1.05,3.33l-.07-.73a11.92,11.92,0,0,0,4.25,2.47,24.86,24.86,0,0,1,5,2.53c-1.21-1.24.11-.94,1.28-.74s2.21.32.62-1.62c.77.28.85.93,1.64,1.36-1.15-1.23-1.18-1.73-.2-1.77l.27.31c.84-1.68,2.62-1.23,4.76-2l-1.48-1.19c.5-.15,1,.2,1.47.38-1.71-2.36-1,.79-3-1.73,1.62,1.1,2.17.55,2.77.06s1.25-.92,2.9.52c.52-.45-1.66-1.44-1.14-1.9l.95.74-.92-1.24c.51-.13,1.69.8,2.38,1.52-.16,0,0,.42-.06.56,1.36.63.89-1.46,1.35-1.26l-1-.1c.66-2.11,3.46-2.46,3.41-5.53l-.68-.6c.09-2.22,1.54,0,2.32-1.61l.08.2c-.3-.9-.23-1.53.18-1.73.33,1.08,1.88,1.11,2.18,2.35.17-2.4-.24-1.59-1.45-4.87l1.12,1c-.54-1.28-1-1.86-.53-2.67.24,1.42,1.81,1.45,2.25,3.24,3.37,1.48,0-4.17,3.58-.93-1.89-3.73-2.6-.86-2.78-1.83-1.13-.83-1.37-2.83-.68-2.84.5-.28,4,3.55,5,2.63-.12.07.06.32-.06.4,1.05.5-.06-1.76,1.49-.81-1.23-2.18.75-.4-1.1-3L487,399.6c.07-1.1-1.66-4.46.4-3.77a7,7,0,0,1,.64,2c.84.52.16-.9,1-.37,1.85,2.58-.83,1.5,0,3.9,1.11.82-.24-2.73,1.55.23-2.22-3.8,1.43-.4.16-3.62l1.1,1.55c-.06-.33-.36-1.23-.11-1.36l1.1,2.26c-.67-2.14,2.29.56,2.18-.8-1.19,1-1.66-1.6-3-2.31,0-3.18,3.88,3.29,5,1.27-.07.39-1.55-.25-1.72-1.22a4.46,4.46,0,0,1,2.22,1c.88-1.17-1.35-1.42-1.58-2.72,1.78,1.55,0-1.17,0-2.14l1.16,1.54c2,0-2.08-3.47,0-3.14l1.11,2.51.19-1,1.2,1.85c-.32-1.79.14-1.61,1.15-1.6-1-1-2-2.87-1.48-3.34,1.08.62.88,1.63,1.53.8.54,1.11,1.24,2.47-.17,1.31.34.53.54,1.11.88,1.63,1.2.74,1.23-.54,1.51-.78a.69.69,0,0,1-.59-.12l-.42-3a2.82,2.82,0,0,1,1,1.58c.12-.34-.25-1.18,0-1.57.85,1.33,1.83,2.61,1.78,3.57l.08-2.23c.48.49,1.69,1.08,1.88,1.65,1.17.29-.28-3.56,1.27-3.19A1.49,1.49,0,0,1,508,389c1-.28,2.81.77,2.46-1.64l2.18,1.89c.35-1-2.79-2.35-2.21-4.08.32-1.35,1.72,1.71,2.48,2.12-.41-1.46-1.36-4.33.77-3C513.68,384.86,513.23,384.67,513.11,385Zm8.26-7.41c0,.45.43,1.72-.36.88C519.94,376.53,520.7,377.29,521.37,377.6Zm11.2-13.39c.22.62-.16.5-.8.05C531.85,364,532.08,364,532.57,364.21Zm32.6-36.82,0,.1C564.4,327.09,564.7,327.26,565.17,327.39Zm1.3.2a1.51,1.51,0,0,0-.37-.72c.19.46,0,.6-.28.62C566.15,327.89,566.44,328.12,566.47,327.59ZM477.6,389.46l.46.28C478.05,390.45,477.84,390,477.6,389.46Z" transform="translate(-0.03 5.8)"/>
    <path class="cls-2" d="M532.47,367.47a8,8,0,0,1-.67-.81A1.54,1.54,0,0,0,532.47,367.47Z" transform="translate(-0.03 5.8)"/>
    <path class="cls-2" d="M508.17,389.87h0l.18.3Z" transform="translate(-0.03 5.8)"/>
    <path class="cls-2" d="M561.84,349.65A2.51,2.51,0,0,1,561,349C561.22,349.42,561.51,349.71,561.84,349.65Z" transform="translate(-0.03 5.8)"/>
    <path class="cls-2" d="M569.38,322l-.3.77c.22-.25.53.06.83.24C569.66,322.65,569.22,322.15,569.38,322Z" transform="translate(-0.03 5.8)"/>
    <path class="cls-2" d="M580.28,329.46c0-.25.16-.12.12-.38l-.48-.76A.71.71,0,0,0,580.28,329.46Z" transform="translate(-0.03 5.8)"/>
    <path class="cls-2" d="M573.17,327.22c.88,1.37.94.69,1.18.2,0,0,0,.05-.07,0C573.23,325.44,573.2,326.33,573.17,327.22Z" transform="translate(-0.03 5.8)"/>
    <path class="cls-2" d="M574.41,327.32a.41.41,0,0,1,.34-.24C574.33,326.27,574.5,327,574.41,327.32Z" transform="translate(-0.03 5.8)"/>
    <path class="cls-2" d="M567,326c.4.25-1-1.85-.51-1.34C565.65,322.77,566.57,327.55,567,326Z" transform="translate(-0.03 5.8)"/>
    <polygon class="cls-2" points="576.19 337.44 575.02 335.8 575.63 337.32 576.19 337.44"/>
    <path class="cls-2" d="M572.42,332.2l.9.1a1,1,0,0,1-.18-.68C572.72,331.79,572.1,331.69,572.42,332.2Z" transform="translate(-0.03 5.8)"/>
    <path class="cls-2" d="M573.14,331.62a.47.47,0,0,0,.32-.59A1,1,0,0,0,573.14,331.62Z" transform="translate(-0.03 5.8)"/>
    <polygon class="cls-2" points="575.65 338.46 575.26 338.21 574.75 338.34 575.65 338.46"/>
    <path class="cls-2" d="M565.61,335.86l-.36.9c.29.63.69.87.79.49C566,336.74,566.06,336.36,565.61,335.86Z" transform="translate(-0.03 5.8)"/>
    <path class="cls-2" d="M570.48,339.31a5.83,5.83,0,0,1-1.08-1.12l1.27,2.13Z" transform="translate(-0.03 5.8)"/>
    <path class="cls-2" d="M568.85,341c.29.63.07,2.28.83,1.63C569.39,342,569.75,341.1,568.85,341Z" transform="translate(-0.03 5.8)"/>
    <polygon class="cls-2" points="557.17 350.32 557.32 350.19 555.13 346.75 557.17 350.32"/>
    <path class="cls-2" d="M553.72,358.28c1.3.33-1.18-2.23.18-1.66-.34-.92-1.11-.47-1.38-1.28C552.61,356.49,552.05,356.16,553.72,358.28Z" transform="translate(-0.03 5.8)"/>
    <path class="cls-2" d="M552.52,355.34a4.12,4.12,0,0,0-.09-.68A2.32,2.32,0,0,0,552.52,355.34Z" transform="translate(-0.03 5.8)"/>
    <polygon class="cls-2" points="447.83 420.98 446.73 421.13 448.13 421.48 447.83 420.98"/>
    <path class="cls-2" d="M449.69,417.93l-2.29-1.22,1.78,1.57C449.16,418.09,449.13,417.72,449.69,417.93Z" transform="translate(-0.03 5.8)"/>
    <path class="cls-2" d="M525.72,380.94l-.33-.54c-.46-.5-.6-.46-.89-.39Z" transform="translate(-0.03 5.8)"/>
    <polygon class="cls-2" points="518.05 389.76 518.2 389.73 516.62 387.97 518.05 389.76"/>
    <path class="cls-2" d="M514.41,390.29c.27-.08.22-.69.5-.77C514.68,390.21,512.63,388,514.41,390.29Z" transform="translate(-0.03 5.8)"/>
  </g>
  <g>
    <path class="cls-2" d="M1315.41,405.72c0,.24,1.24-.9,1.49-1.07C1316.42,404.65,1315.09,406,1315.41,405.72Z" transform="translate(-0.03 5.8)"/>
    <polygon class="cls-2" points="1310.51 411.68 1311.06 411.28 1309.5 412.03 1310.51 411.68"/>
    <path class="cls-2" d="M1308.71,403.69c-2,2.06,1,.49.58,1.53l-.44.49,1.89-1.32C1310.07,404.16,1308.39,404.54,1308.71,403.69Z" transform="translate(-0.03 5.8)"/>
    <path class="cls-2" d="M1312.42,398.52c-.79.8-1,.37,0,.5.07-.11.12-.16.17-.23A.42.42,0,0,1,1312.42,398.52Z" transform="translate(-0.03 5.8)"/>
    <path class="cls-2" d="M1312.55,398.79c.26.17.59-.76,0,0Z" transform="translate(-0.03 5.8)"/>
    <path class="cls-2" d="M1311.17,398.15l1-.35c.45-.49.33-.85.78-1.06C1312.28,396.78,1311.84,397.27,1311.17,398.15Z" transform="translate(-0.03 5.8)"/>
    <path class="cls-2" d="M1309.34,399.22l.45-.12C1310,398.89,1310,398.79,1309.34,399.22Z" transform="translate(-0.03 5.8)"/>
    <path class="cls-2" d="M1310.75,398.85l-1,.25c-.31.34-1,.95.38-.06C1309.5,399.56,1310.17,399.1,1310.75,398.85Z" transform="translate(-0.03 5.8)"/>
    <path class="cls-2" d="M1310.58,399.32c-.33.58-.44,1.05-1.45,1.39C1309.92,401,1311.38,399.64,1310.58,399.32Z" transform="translate(-0.03 5.8)"/>
    <path class="cls-2" d="M1306.37,405.5l-.44.77.89-.43C1306.38,406.05,1307,404.9,1306.37,405.5Z" transform="translate(-0.03 5.8)"/>
    <path class="cls-2" d="M1310.69,395.31c-.48.38-1.14,1.16-1.71,1.68l.72-.23A3.93,3.93,0,0,1,1310.69,395.31Z" transform="translate(-0.03 5.8)"/>
    <path class="cls-2" d="M1309,397l-1.08.35C1308.06,397.72,1308.48,397.45,1309,397Z" transform="translate(-0.03 5.8)"/>
    <polygon class="cls-2" points="1306.86 407.03 1308.99 406.15 1306.74 406.94 1306.86 407.03"/>
    <polygon class="cls-2" points="1309.63 399.8 1310.86 399.07 1308.96 400.12 1309.63 399.8"/>
    <path class="cls-2" d="M1308.76,393.31c1-.61,1.33-1.47,2-1.79a5.34,5.34,0,0,0-2.11.77C1309.19,392.15,1309.26,392.44,1308.76,393.31Z" transform="translate(-0.03 5.8)"/>
    <path class="cls-2" d="M1307.4,392.85a11.15,11.15,0,0,0,1.25-.56A5.5,5.5,0,0,0,1307.4,392.85Z" transform="translate(-0.03 5.8)"/>
    <path class="cls-2" d="M1307.64,396.58a5.32,5.32,0,0,0,1.1-1.39l-1.19,1.24Z" transform="translate(-0.03 5.8)"/>
    <path class="cls-2" d="M1307.51,396.47l0,0a3.36,3.36,0,0,1-.17-.34S1307.44,396.25,1307.51,396.47Z" transform="translate(-0.03 5.8)"/>
    <path class="cls-2" d="M1307.67,396.62l0,0C1307.53,396.7,1307.49,396.74,1307.67,396.62Z" transform="translate(-0.03 5.8)"/>
    <path class="cls-2" d="M1307.32,399.35a4.93,4.93,0,0,0-2.79,2C1305.54,400.75,1306,400,1307.32,399.35Z" transform="translate(-0.03 5.8)"/>
    <path class="cls-2" d="M1306.18,398.17v.6a6,6,0,0,1,1.22-1Z" transform="translate(-0.03 5.8)"/>
    <polygon class="cls-2" points="1305.59 404.15 1306.15 403.97 1306.15 403.75 1305.59 404.15"/>
    <path class="cls-2" d="M1306.7,394.49c-.69.33-.88.21-1.14.1a1.11,1.11,0,0,0,.13.94C1306.13,395.21,1306.93,394.67,1306.7,394.49Z" transform="translate(-0.03 5.8)"/>
    <path class="cls-2" d="M1307,395.55l-.1,0C1306.79,395.7,1306.77,395.74,1307,395.55Z" transform="translate(-0.03 5.8)"/>
    <path class="cls-2" d="M1304,392.73c-.06.07-.15.15-.21.23l.23-.19Z" transform="translate(-0.03 5.8)"/>
    <path class="cls-2" d="M1305.48,395.77c-.12.37.28.19.75-.07a.76.76,0,0,1-.54-.17C1305.5,395.68,1305.38,395.78,1305.48,395.77Z" transform="translate(-0.03 5.8)"/>
    <path class="cls-2" d="M1306.35,392.85a7.26,7.26,0,0,0-.49.88C1306.21,393.3,1306.71,392.59,1306.35,392.85Z" transform="translate(-0.03 5.8)"/>
    <path class="cls-2" d="M1307.19,395.22l.08,0C1307.51,394.91,1307.38,395,1307.19,395.22Z" transform="translate(-0.03 5.8)"/>
    <path class="cls-2" d="M1307.19,395.22a9.48,9.48,0,0,0-1,.48,1.73,1.73,0,0,0,.65-.12Z" transform="translate(-0.03 5.8)"/>
    <path class="cls-2" d="M1295.17,399.3c1.22-1,2.68-1.56,1.68-.11,1.19-.43,5-4,6.93-6.23a4.68,4.68,0,0,1-2,1.11c-.56.69-.88,2.09-2.22,2.73-1,.07.1-.75.55-1.51-1.34,1.47-2.69,1.27-4.81,3.26l1.12-.26C1296.06,398.59,1295.38,398.92,1295.17,399.3Z" transform="translate(-0.03 5.8)"/>
    <path class="cls-2" d="M1304.22,393.73h.27a7.39,7.39,0,0,1,1.21-1.89,5.24,5.24,0,0,0-1.69.92l.43.85Z" transform="translate(-0.03 5.8)"/>
    <path class="cls-2" d="M1305.05,394.38c-1.41,1-2.26,1.14-3.5,2.57.46.34,1.35-.64,2.13-.88-.9-.4.9-.43,1.22-1.55a1,1,0,0,1,.66.07,4,4,0,0,1,.3-.86l-.07.08h0l0,0c-.14.17-.23.26-.16.15h0c-.19.16-.36.28-.52.4.1-.43.31-.32.52-.4l.2-.15v0l-1.3-.07C1304.44,394,1304.63,394.19,1305.05,394.38Z" transform="translate(-0.03 5.8)"/>
    <path class="cls-2" d="M1301.4,403.42a2.46,2.46,0,0,1,.28-.28C1301.49,403.23,1301.36,403.31,1301.4,403.42Z" transform="translate(-0.03 5.8)"/>
    <path class="cls-2" d="M1302,402.46c.23-.11.78-.51.79-.24-.28.48-.63.54-1.06.92a2.76,2.76,0,0,0,1.61-1.32l-.22.11a9.94,9.94,0,0,1,1.77-2.52C1303.73,400.5,1303,401.29,1302,402.46Z" transform="translate(-0.03 5.8)"/>
    <path class="cls-2" d="M1303.15,398.69l-1.13,0-.89,1.26.67-.6C1301.81,399.88,1302.59,399.1,1303.15,398.69Z" transform="translate(-0.03 5.8)"/>
    <polygon class="cls-2" points="1304.55 397.91 1306 396.8 1303.77 398.14 1304.55 397.91"/>
    <polygon class="cls-2" points="1303.76 397.31 1304.98 396.31 1304.09 396.74 1303.76 397.31"/>
    <path class="cls-2" d="M1253.32,362.71l-.48.12A1.31,1.31,0,0,0,1253.32,362.71Z" transform="translate(-0.03 5.8)"/>
    <path class="cls-2" d="M1254.27,364l.62-.47C1254.51,363.73,1254.25,363.91,1254.27,364Z" transform="translate(-0.03 5.8)"/>
    <path class="cls-2" d="M1288.19,373.54c.91-1.21,2.42-3,1.09-1.78L1288,373C1288.41,372.93,1288.37,373.18,1288.19,373.54Z" transform="translate(-0.03 5.8)"/>
    <path class="cls-2" d="M1269.72,367.88l-.34.41,1.4-.91Z" transform="translate(-0.03 5.8)"/>
    <path class="cls-2" d="M1264.11,372.38l.58-1.05A4.47,4.47,0,0,0,1264.11,372.38Z" transform="translate(-0.03 5.8)"/>
    <path class="cls-2" d="M1246.29,357.32l-1.51.95C1245.05,358.57,1245.61,357.86,1246.29,357.32Z" transform="translate(-0.03 5.8)"/>
    <path class="cls-2" d="M1296.85,384.38c.34-.65.41-1,.35-1.2C1296.66,384.08,1295.7,385.25,1296.85,384.38Z" transform="translate(-0.03 5.8)"/>
    <path class="cls-2" d="M1267.72,351.21a2.68,2.68,0,0,0-.92.55A2.09,2.09,0,0,0,1267.72,351.21Z" transform="translate(-0.03 5.8)"/>
    <path class="cls-2" d="M1296.68,382.58c-.1.15-.14.24-.22.37.36,0,.67,0,.74.23C1297.61,382.51,1297.77,382,1296.68,382.58Z" transform="translate(-0.03 5.8)"/>
    <path class="cls-2" d="M1227,332.5c0-.07.06-.11.11-.19C1226.89,332.46,1226.9,332.49,1227,332.5Z" transform="translate(-0.03 5.8)"/>
    <path class="cls-2" d="M1234.32,314.16c.14,0,.24.11.35.2C1234.71,314.23,1234.63,314.16,1234.32,314.16Z" transform="translate(-0.03 5.8)"/>
    <path class="cls-2" d="M1301.83,388.05c.22.09.17-.1,0,0Z" transform="translate(-0.03 5.8)"/>
    <path class="cls-2" d="M1297.26,393.27a4.68,4.68,0,0,0-.69.49A6.16,6.16,0,0,1,1297.26,393.27Z" transform="translate(-0.03 5.8)"/>
    <path class="cls-2" d="M1287.14,388a0,0,0,0,0,0,0C1286.91,388.29,1287,388.24,1287.14,388Z" transform="translate(-0.03 5.8)"/>
    <path class="cls-2" d="M1301.43,388.8a2,2,0,0,0,.22-.53A2.34,2.34,0,0,0,1301.43,388.8Z" transform="translate(-0.03 5.8)"/>
    <path class="cls-2" d="M1302,388.24a1,1,0,0,0,0,.24C1302.25,388.31,1302.38,388.18,1302,388.24Z" transform="translate(-0.03 5.8)"/>
    <path class="cls-2" d="M1301.57,387.9c.1.07.11.21.08.37a.62.62,0,0,1,.18-.22A1.31,1.31,0,0,1,1301.57,387.9Z" transform="translate(-0.03 5.8)"/>
    <path class="cls-2" d="M1241.43,342.28l.1-.14C1240.85,342.45,1241,342.44,1241.43,342.28Z" transform="translate(-0.03 5.8)"/>
    <path class="cls-2" d="M1271,381.18l.08,0,0-.06Z" transform="translate(-0.03 5.8)"/>
    <path class="cls-2" d="M1269.55,381.46c1.85-1.16,1.76-.86,1.57-.38l3.64-3.44Z" transform="translate(-0.03 5.8)"/>
    <path class="cls-2" d="M1250.47,360.15l-.85,1.4c-2.35,1.2-2,.28-3.33,2.07,4.18-3.47,1.74,1.17,5.91-2.3l-.65,1c0-.11-.27.09-.3,0-1.54,2.2,3.31-2.18,3.28-1a2.32,2.32,0,0,1-1.21,1.43l1.45-.37c0,.22-.7.79-.75.58l1,.49-.12.1c.74-.45,1.95-1.05,2.48-1.3-.42.71-.52.28-1,.77l1.36-.43c-.92,1.09-2.26,1.62-2.36,1.2-3.78,3.92,1.35-.54-.33,2.38l-.86.05c-2.13,2.26-1,1.85-2.08,3.55.67-.76,2.9-4.05,4.33-4.47-.2.4-.2.69.84.23-1.47,1.26-.9,1.2-.55,1.43l-2,1.64c.85-.15,1.82-1,2.86-1.57.12.53-1.32,1.89-2.52,3.06.2.86,2.07-2.47,3-2.08-.32,1.12.77.79,2.43.38-.37.91-1.24,1-1.69,1.55l1.81-1c0,.11-.47.49-.72.69.82-.26,2-1.65,2.84-1.69,2.23-1.73-2.43,3.5.43,1.92a20.78,20.78,0,0,1-2,1.64,18.24,18.24,0,0,0,4.29-1.68l-.87,1.57c1.16-1.6,3.27-2.63,5-3.45.6-.73,1.12-1.36,1.35-1.69l1.59-.26a9,9,0,0,1-1.88,1.45c.2-.1.39-.19.56-.29a9.75,9.75,0,0,1-3,2.45c.32-.4.66-.83,1-1.25a31.25,31.25,0,0,0-3.86,2.84,1.75,1.75,0,0,1,.7-.25,6.63,6.63,0,0,0-.84.64c-.19.2.3-.1.88-.43l-2,2,.89-.7-.66,2c2.69-1.28,6.34-3.51,8-3.35a38.91,38.91,0,0,0-4.53,3.77c1.77-2-1.47,0-1.48-.83,0,.44-.94,1.15-1.3,1.35l2.55-.69c-1.56,1.3-1,1.17-1.45,1.94,2.9-2.77,2.58-1.09,3.82-1.54-1,.9-2.12,1.71-2.24,1.07-1.89,2.43,4.09-2.45,2.54-.32-.11-.08,0-.27-.56.13,1.12-.53.91.68-.1,1.3l-.11-.09c.23,1,1.78,2.14,4.46,0-.33.29-3.2,2.57-3.76,3l9.76-6.2c-2.31,1.79-7.24,6.73-9,7.22-.17.44-.37,1,.71.64a19.57,19.57,0,0,1,3.31-3,31.77,31.77,0,0,0-2.74,3.75c.34-.58,4-3.37,4.1-3-.56.4-3.42,3-3.87,3.17l4-2.26a21.64,21.64,0,0,0-3.76,3.42c.61-.64.42.63.91.52l.56-1c.12,1.19,5.44-3.37,5.9-2.47-.79.51-4.54,3.49-4.65,4.24,1.9-1.33,9.08-6.44,11-6.93l-.89,1,1.57-.47c-2.9,1.94-9.2,5.8-11.77,7.16-.55,1-1.11,1.09-.66,1.43-.82.95-1.62,1-1.78.91l.23,1.5c2-1.79,2.69-1,4.36-2.5l-3,.75c2-1.79,6.33-4.35,6.56-3.34-.66.87-3.75,3-4.42,3.57.78-.51,1.91-.49,1.46,0l-1.34.64c-.44,1.05,3.24-1.68,1.69.45,0,.27-2.22,2.73-1,1.72a129.52,129.52,0,0,1,11.18-9.8,31.27,31.27,0,0,1-2.51,3.92c-1.6,1.82-4.69,3.33-6.07,4.89a10.37,10.37,0,0,1,1.65-1c-.33.58-1.79,1.41-1.22,1.56,2.12-1.71.46.9,1.9-1.32.9-.15-.1.74.35,1.08a20,20,0,0,1,5.77-3.66,14,14,0,0,0-1.44,1.4c.44.89-.17,2.09.4,2.79a7.08,7.08,0,0,1-1.78,2c.45-.21,1.23-.72,1.46-.56-1.45,1.94-.68-.23-2.57,1.93,1.23-1,2.13-.88,3.14-1.22,1.78-1.69-.24-1-1.25-.66,2.56-2.19,5.7-4,7.5-4.27,1.12,0-1.45,1.66-1,1.45.46,1.45,5.25-2.92,4.16-.45-1.33,1.75-3.24,2.79-4.35,3.88-1,.07.43-1.6.1-1.86l-.45,1.05c-.67.32-1.34.36-1-.21-1.22,1.55,1.25,2,.6,4a5,5,0,0,0,2-1.23l-.45-.07c1.12-1.36,2.24-1.07,2.58-1.92,1.22-.45,3-1.3,2.69-.17l-1.79,1.69c.54-.48.84-1.27.15-.93,1-.5-1.87,2.91.76,1.05l1-1.45c1.24-.45,3.59-1.71,3.37-.77,1.68-1.77-.29.08,1.6-2.07-2.45,2.56-.84-1.21-3.29,1.63,2.23-2.46.59-1.46,2.37-3.7-.61.54-1,1.16-1.06.53-.2.14-.46.3-.61.39a.19.19,0,0,1,0-.07l0,.08c-.11.07-.13.08,0,0a5.62,5.62,0,0,1-.78,1c-1.57,1-2,.4-2.92.83.11-.46.79-.51,1.34-1.19l-1.34.64c1.34-1.2,1.77-2.51,3-2.69l-.33-.51c.53-.93.52-1.56-.25-1.3.11-.47-2,.75-.75,0h-1.47l.34-.29c-.44-.86-3.51.46-1.75-2.46-.55.06-1.18.17-1.13-.56l1.11-1.09c-.67.05.39-1.93-1-1,2.89-3.05-.58-2.09-.48-3.11l-1.56,1.29c-.23-.44-1-.43-2-.36l-1.34,1.2c-1.46.55.09-1.86-.59-2.37.56-.4.56-.13.34.26,2.44-3.39-3.59.32-1.94-2.28-.64.26-.57,0-.33-.43,0,0,.05,0,.1,0s0-.06,0-.09c.17-.27.38-.58.53-.85a6,6,0,0,0-.57.82,1.38,1.38,0,0,0-1-.07L1288,373s0,0-.08,0c.38-.65-.83.44-1.84,1.48a6.73,6.73,0,0,0-1.1.5c2.23-2.18-1.24.17,1.1-2.2-1.34.92-1.76-.19-4.44,1.92.33-.3.45-.49.56-.41.11-.47.21-.93-.68-.51l1.78-1.68-2.91,1.66a8.05,8.05,0,0,1,3.12-2.88c-2.79,1.2-1.31.15-4,1.43l1.22-1c-.22-.17-2.12.87-1.23-.11,1.88-2.42-1.68-2.59-.59-5.62-3.34,3.26,1.11-1.92-1.68.38a7,7,0,0,1,2-1.79c-1.35.09.53-2.06-2.15-.5.79-.79,1.35-.92,1.79-1.41-.22.1-.9.43-.45-.07a2.78,2.78,0,0,1,1.23-.72c-.68-.51-3.32,1.63-5.78,3.66.87-1.3.57-1.32-1.21-.19.69-.79,1.37-1.69,2-1.54-.08-.32,0-2.34-2-.7.43-.49-.12-.43-.4-.29-.3-.6-.17-.79-.76-1.12l-.21.41c-2.5,1.81-.86,0-1.48-.11l.25-.19c.92-2.35-1.14.3,0-2.23l-1.42,1.29c-3.2,2.6,1.18-2.36-.45-1.85l-.68.9c-1.31.63,3.6-4.43,3.75-5,.22-.3.52-.28.79-.36,1.22-2.32-2,1.53-2.9,1.36.94-1,2.73-2.11,2.6-2.64.68-.9-4.26,1.79-2.71-.41a5.84,5.84,0,0,1-2.21,1.84c-.62-.15,2.09-3.63-.71-1.84a3.23,3.23,0,0,1,.56-.6c-.9.25-1.9-.06-3.42.92,4.81-4.58-4,.24.62-3.73l-1-.7.5-.38c-.2-.85-1.49-.11-2.78.64.2-.41.72-.68,1-.88.2-1.66-.07-1.58-3-.32l1.44-1.36c-1,.55,1.31-3.26-1.17-2.6a4.06,4.06,0,0,1,.75-.49c-2.58.57,2.24-5.84-3.54-1.49l-1.89.53c.27,1.17-2.48,1.91-3.11,3-.59,0,.95-2.23,1.57-2.08l-.22.29c3-2.3.15-1.87,2.12-3.51-1.51-1.48-1.25-4.38-2.4-6l-2.08,2.08-.32-.63c.4-.58,1.59-1.67,1.81-1.22,1.09-1.28-1.59.27-2.08.68.28-1.5,2.84-1.94,2.7-2.2l-.43-.16-.2.29c-1.12.53-2.1,1.33-2.37.79.2-.66,1.25-1.32,1.24-1.5.16-.14.2-.24-.08-.23l-.37-.82-1.53,1.77c-1.12.45-.44-.7-2.17,1.31,2.69-3.07-1-3.39-.27-4.48-1.63.69-2,.27-2.22-.36-.26.44-2.17,2.2-2.3,1.56,4.21-3.32,1.1-2.3,3.73-5.15-1.67,2-1.52-.81-3.86,2,0-.64,1.5-1.33,2.23-2.42-2.31.5-.58-2.75-2-3.35a10.26,10.26,0,0,1-2.21,1.77l2.2-2.84c-.44,0-3.25,2.44-1.72.48-.4.44-1,1.1-1.3,1.1.84-4.29-5.74-2.39-2.64-8.67-.79,1.17-1.06,1.07-1.28.88-.13.36-1.33,1.13-2,1.78l1.27-2.6c-2.15,1.56-.94-.83-3,.73l.59,0c-2.59,1.57-4.6,4.83-7.56,7.26,2.93-1.79-2.89,4.36,1.38,1.88-.46.66-1,.68-1.65,1.34,1.39-.9,1.83-.91,1.6-.05l-.34.22c1.22.82.39,2.34.61,4.25l1.36-1.32c0,.43-.37.87-.63,1.3,2.44-1.57-.5-.84,2.14-2.62-2.63,2.85,1.53,1.88-1.6,5,.33.41,1.57-1.55,1.89-1.13l-.81.88,1.25-.89c0,.42-1,1.52-1.73,2.18,0-.14-.37,0-.5,0-.77,1.25,1.19.65.94,1.07l.23-.86c1.78.37,1.74,2.72,4.48,2.22l.61-.67c2-.26-.19,1.29,1.15,1.68l-.19.11c.83-.4,1.37-.46,1.5-.15-1,.46-1.18,1.75-2.32,2.2,2.1-.27,1.44-.47,4.46-2.05l-1,1.1c1.19-.68,1.74-1.12,2.42-.92-1.28.46-1.48,1.75-3.11,2.43-1.67,3,3.67-.74.43,2.77,3.49-2.24,1-2.29,1.92-2.62.85-1.07,2.63-1.64,2.57-1.08.18.35-3.56,3.92-2.86,4.61-.05-.08-.29.11-.34,0-.56,1,1.55-.38.55,1.07,2-1.42.27.54,2.72-1.46l-1.14-.21c1-.15,4.09-2.19,3.27-.38a9.35,9.35,0,0,1-1.8.89c-.54.79.78,0,.22.78-2.46,2-1.24-.39-3.43.76-.84,1.07,2.42-.7-.37,1.32,3.58-2.53.21,1.1,3.18-.56l-1.47,1.2c.29-.12,1.12-.53,1.21-.35l-2.1,1.33c1.94-1-.72,2,.48,1.63-.75-.78,1.58-1.67,2.34-2.92,2.8-.63-3.28,3.81-1.61,4.36-.34,0,.37-1.32,1.24-1.65a5.22,5.22,0,0,1-1.06,2c.94.5,1.39-1.38,2.55-1.82-1.54,1.76,1-.24,1.87-.39l-1.46,1.25c-.21,1.67,3.25-2.38,2.77-.64l-2.31,1.41.87,0-1.74,1.34c1.61-.62,1.41-.21,1.31.62.95-1,2.71-2.22,3.08-1.88-.65,1-1.52,1-.85,1.41-1,.66-2.29,1.51-1.13.12-.5.39-1,.67-1.52,1.05-.76,1.14.37.9.55,1.08a.65.65,0,0,1,.16-.5l2.7-1a4.11,4.11,0,0,1-1.48,1.15c.29,0,1.06-.45,1.38-.32-1.24,1-2.46,2-3.3,2.18l2-.39c-.48.49-1.1,1.6-1.62,1.88-.35,1,3.18-1,2.72.37a1.9,1.9,0,0,1,.8-.33c.17.74-.91,2.45,1.25,1.66l-1.84,2.18c.89.06,2.29-2.77,3.78-2.67,1.16,0-1.65,1.77-2.07,2.48,1.31-.64,3.92-2,2.62,0C1250.57,360.57,1250.77,360.17,1250.47,360.15Zm6,5.07c-.4.15-1.55.74-.75-.09C1257.49,363.83,1256.77,364.62,1256.45,365.22Zm11.19,5.94c-.56.33-.43,0,0-.63C1267.85,370.53,1267.9,370.7,1267.64,371.16Zm31.53,16.2-.08.05C1299.44,386.67,1299.3,387,1299.17,387.36Zm-.18,1.07a2,2,0,0,0,.63-.49c-.4.28-.53.18-.54,0C1298.73,388.26,1298.52,388.56,1299,388.43Zm-49.11-56.26-.3.43C1249,332.73,1249.4,332.47,1249.88,332.17Z" transform="translate(-0.03 5.8)"/>
    <path class="cls-2" d="M1264.76,371.86a8.85,8.85,0,0,1,.76-.73A2,2,0,0,0,1264.76,371.86Z" transform="translate(-0.03 5.8)"/>
    <path class="cls-2" d="M1246.57,357.14s0,0,0,0l-.28.21Z" transform="translate(-0.03 5.8)"/>
    <path class="cls-2" d="M1279.55,390.88a3.43,3.43,0,0,1,.58-.86C1279.77,390.32,1279.5,390.63,1279.55,390.88Z" transform="translate(-0.03 5.8)"/>
    <path class="cls-2" d="M1303.87,389.1h-.67c.22.1,0,.44-.22.72C1303.32,389.51,1303.76,389,1303.87,389.1Z" transform="translate(-0.03 5.8)"/>
    <path class="cls-2" d="M1297.31,399.8c.22-.1.11.09.33,0l.67-.59C1298.09,399,1297.41,399.34,1297.31,399.8Z" transform="translate(-0.03 5.8)"/>
    <path class="cls-2" d="M1299.27,393.58c-1.21,1.09-.61.94-.18,1,0,0,0,0,0,0C1300.84,393.11,1300.05,393.35,1299.27,393.58Z" transform="translate(-0.03 5.8)"/>
    <path class="cls-2" d="M1299.18,394.58c.12,0,.22.07.22.19C1300.11,394.21,1299.47,394.56,1299.18,394.58Z" transform="translate(-0.03 5.8)"/>
    <path class="cls-2" d="M1300.38,388.41c-.22.38,1.64-1.28,1.19-.79C1303.25,386.4,1299,388.5,1300.38,388.41Z" transform="translate(-0.03 5.8)"/>
    <polygon class="cls-2" points="1295.34 403.06 1296.79 401.67 1295.45 402.59 1295.34 403.06"/>
    <path class="cls-2" d="M1294.89,394.42l-.1.74a1.39,1.39,0,0,1,.6-.34C1295.24,394.54,1295.33,394,1294.89,394.42Z" transform="translate(-0.03 5.8)"/>
    <path class="cls-2" d="M1295.39,394.82c.08.15.21.24.52.09A.65.65,0,0,0,1295.39,394.82Z" transform="translate(-0.03 5.8)"/>
    <polygon class="cls-2" points="1294.44 402.93 1294.66 402.55 1294.54 402.18 1294.44 402.93"/>
    <path class="cls-2" d="M1291.7,390.1l-.79,0c-.56.4-.78.79-.45.77A3,3,0,0,0,1291.7,390.1Z" transform="translate(-0.03 5.8)"/>
    <path class="cls-2" d="M1288.59,394.92a7.71,7.71,0,0,1,1-1.18l-1.9,1.61Z" transform="translate(-0.03 5.8)"/>
    <path class="cls-2" d="M1287.12,394.09c-.56.4-2,.68-1.45,1.11C1286.23,394.79,1287,394.84,1287.12,394.09Z" transform="translate(-0.03 5.8)"/>
    <polygon class="cls-2" points="1284.15 391.62 1284.27 391.7 1287.35 389.04 1284.15 391.62"/>
    <path class="cls-2" d="M1272.08,386.66c-.32,1.12,2-1.52,1.46-.29.83-.51.45-1,1.18-1.43C1273.7,385.31,1274,384.78,1272.08,386.66Z" transform="translate(-0.03 5.8)"/>
    <path class="cls-2" d="M1274.72,384.94a4.62,4.62,0,0,0,.6-.25A3,3,0,0,0,1274.72,384.94Z" transform="translate(-0.03 5.8)"/>
    <polygon class="cls-2" points="1234.97 317.39 1235.34 316.52 1234.48 317.62 1234.97 317.39"/>
    <path class="cls-2" d="M1232.18,313l1.91-1.77-1.94,1.34C1232.3,312.52,1232.58,312.51,1232.18,313Z" transform="translate(-0.03 5.8)"/>
    <path class="cls-2" d="M1253.23,369.5l.49-.38c.47-.49.45-.6.4-.81Z" transform="translate(-0.03 5.8)"/>
    <polygon class="cls-2" points="1251.02 369.77 1251.04 369.88 1252.71 368.21 1251.02 369.77"/>
    <path class="cls-2" d="M1245.71,362.32c0,.21.59,0,.64.25C1245.76,362.53,1247.9,360.38,1245.71,362.32Z" transform="translate(-0.03 5.8)"/>
  </g>
  <g>
    <path class="cls-2" d="M1356.11,297.1c.33,0-.64-1.41-.75-1.69C1355.12,296,1356.35,297.46,1356.11,297.1Z" transform="translate(-0.03 5.8)"/>
    <polygon class="cls-2" points="1353.9 308.72 1353.61 308.09 1353.88 309.9 1353.9 308.72"/>
    <path class="cls-2" d="M1350,305.3c1.87,2.2,1.17-1.26,2.4-.83l.46.48-.9-2.15C1351.32,303.64,1351,305.61,1350,305.3Z" transform="translate(-0.03 5.8)"/>
    <path class="cls-2" d="M1344.67,301.34c.71.86,0,1.09.67,0a3,3,0,0,1-.24-.18A.91.91,0,0,1,1344.67,301.34Z" transform="translate(-0.03 5.8)"/>
    <path class="cls-2" d="M1345.1,301.15c.37-.32-.76-.63,0,0Z" transform="translate(-0.03 5.8)"/>
    <path class="cls-2" d="M1343.54,302.88l0-1.19c-.46-.48-1-.31-1.1-.82C1342.2,301.68,1342.66,302.16,1343.54,302.88Z" transform="translate(-0.03 5.8)"/>
    <path class="cls-2" d="M1344.13,305l.06-.53C1344,304.23,1343.87,304.2,1344.13,305Z" transform="translate(-0.03 5.8)"/>
    <path class="cls-2" d="M1344.31,303.31l-.12,1.12c.32.35.82,1.13.1-.44C1344.69,304.74,1344.38,304,1344.31,303.31Z" transform="translate(-0.03 5.8)"/>
    <path class="cls-2" d="M1344.88,303.47c.63.34,1.23.42,1.21,1.6C1346.91,304.09,1345.7,302.48,1344.88,303.47Z" transform="translate(-0.03 5.8)"/>
    <path class="cls-2" d="M1351.37,307.93l.84.46-.15-1C1352.13,307.87,1350.87,307.19,1351.37,307.93Z" transform="translate(-0.03 5.8)"/>
    <path class="cls-2" d="M1339.39,303.73c.29.54,1,1.26,1.49,1.89l0-.84A2.92,2.92,0,0,1,1339.39,303.73Z" transform="translate(-0.03 5.8)"/>
    <path class="cls-2" d="M1340.88,305.62l0,1.26C1341.44,306.65,1341.27,306.17,1340.88,305.62Z" transform="translate(-0.03 5.8)"/>
    <polygon class="cls-2" points="1345.68 313.52 1345.5 311.05 1345.51 313.66 1345.68 313.52"/>
    <polygon class="cls-2" points="1337.03 310.9 1336.62 309.5 1337.15 311.68 1337.03 310.9"/>
    <path class="cls-2" d="M1335.68,306.25c-.37-1.14-1.39-1.45-1.51-2.22-.3.43-.12,1.5,0,2.46C1334.28,305.85,1334.71,305.74,1335.68,306.25Z" transform="translate(-0.03 5.8)"/>
    <path class="cls-2" d="M1334.38,307.93a7.5,7.5,0,0,0-.17-1.44A4.25,4.25,0,0,0,1334.38,307.93Z" transform="translate(-0.03 5.8)"/>
    <path class="cls-2" d="M1339.66,307.26c-.24-.28-.84-1-1.39-1.17l1.14,1.3Z" transform="translate(-0.03 5.8)"/>
    <path class="cls-2" d="M1339.45,307.43l0,0c-.27.13-.47.21-.55.24Z" transform="translate(-0.03 5.8)"/>
    <path class="cls-2" d="M1339.73,307.23l-.07,0C1339.77,307.39,1339.82,307.43,1339.73,307.23Z" transform="translate(-0.03 5.8)"/>
    <path class="cls-2" d="M1343.33,307.38c.16,1,0,2.36,1.45,3.15C1344.41,309.38,1343.57,308.93,1343.33,307.38Z" transform="translate(-0.03 5.8)"/>
    <path class="cls-2" d="M1341.15,308.86l.84-.06a4,4,0,0,1-.79-1.38Z" transform="translate(-0.03 5.8)"/>
    <polygon class="cls-2" points="1341.1 315.32 1341.12 314.67 1340.81 314.69 1341.1 315.32"/>
    <path class="cls-2" d="M1336.32,308.6a1.35,1.35,0,0,1-.42,1.36,2.19,2.19,0,0,0,1.37-.25C1337,309.22,1336.68,308.31,1336.32,308.6Z" transform="translate(-0.03 5.8)"/>
    <path class="cls-2" d="M1337.92,308.16s0,.08,0,.12S1338.08,308.4,1337.92,308.16Z" transform="translate(-0.03 5.8)"/>
    <path class="cls-2" d="M1332.58,312.06l.22.22-.15-.25Z" transform="translate(-0.03 5.8)"/>
    <path class="cls-2" d="M1337.5,309.94c.45.11.39-.35.26-.89a1.42,1.42,0,0,1-.49.66C1337.38,309.93,1337.46,310.06,1337.5,309.94Z" transform="translate(-0.03 5.8)"/>
    <path class="cls-2" d="M1333.88,309.2a6.39,6.39,0,0,0,1,.49C1334.43,309.32,1333.7,308.79,1333.88,309.2Z" transform="translate(-0.03 5.8)"/>
    <path class="cls-2" d="M1337.57,307.94v-.09C1337.29,307.59,1337.39,307.74,1337.57,307.94Z" transform="translate(-0.03 5.8)"/>
    <path class="cls-2" d="M1337.57,307.94a5.86,5.86,0,0,0,.19,1.11,1.68,1.68,0,0,0,.15-.77A3.62,3.62,0,0,1,1337.57,307.94Z" transform="translate(-0.03 5.8)"/>
    <path class="cls-2" d="M1337.46,322c-.81-1.37-.88-3.06.64-2,0-1.39-3.21-5.54-5.3-7.67a3.26,3.26,0,0,1,.57,2.33c.68.59,2.47.83,2.71,2.37-.39,1.21-1,0-1.83-.5,1.4,1.45.5,3.1,2.23,5.43l.18-1.32C1336.91,321,1337,321.74,1337.46,322Z" transform="translate(-0.03 5.8)"/>
    <path class="cls-2" d="M1334.08,311.67l.15-.33a5.53,5.53,0,0,1-2-1.25,3.71,3.71,0,0,0,.46,1.94l1.39-.62Z" transform="translate(-0.03 5.8)"/>
    <path class="cls-2" d="M1335.38,310.6c.72,1.58.49,2.59,1.87,3.93.68-.58-.25-1.55-.2-2.47-1,1.13-.16-1-1.56-1.3a1.62,1.62,0,0,1,.41-.8,4.32,4.32,0,0,1-1-.27l.08.07h0l0,0c.16.15.25.25.12.18s0,0,0,.05a4.48,4.48,0,0,1,.29.58c-.54-.08-.29-.34-.29-.58l-.12-.23,0,0-.71,1.58C1334.61,311.38,1334.91,311.13,1335.38,310.6Z" transform="translate(-0.03 5.8)"/>
    <path class="cls-2" d="M1346.1,314.08a1.17,1.17,0,0,1-.25-.32C1345.88,314,1345.93,314.13,1346.1,314.08Z" transform="translate(-0.03 5.8)"/>
    <path class="cls-2" d="M1345,313.51c0-.26-.33-.89,0-.92.53.28.44.7.76,1.17-.07-.49,0-1.42-1-1.79l0,.25a6.93,6.93,0,0,1-2.62-1.88A27.33,27.33,0,0,0,1345,313.51Z" transform="translate(-0.03 5.8)"/>
    <path class="cls-2" d="M1340.41,312.44l-.56,1.35,1.31.94-.5-.74C1341.42,313.93,1340.71,313.07,1340.41,312.44Z" transform="translate(-0.03 5.8)"/>
    <polygon class="cls-2" points="1331.97 317.21 1331.13 315.59 1331.92 318.13 1331.97 317.21"/>
    <polygon class="cls-2" points="1330.77 318.23 1329.97 316.86 1330.14 317.89 1330.77 318.23"/>
    <path class="cls-2" d="M1268.86,377.5l0,.57A1.39,1.39,0,0,0,1268.86,377.5Z" transform="translate(-0.03 5.8)"/>
    <path class="cls-2" d="M1271,376.14l-.4-.68C1270.75,375.88,1270.89,376.17,1271,376.14Z" transform="translate(-0.03 5.8)"/>
    <path class="cls-2" d="M1298.74,333.48c-1.25-1-3-2.54-2-1.09l1.09,1.36C1298,333.29,1298.33,333.3,1298.74,333.48Z" transform="translate(-0.03 5.8)"/>
    <path class="cls-2" d="M1282.82,356.72l.42.35-.65-1.56Z" transform="translate(-0.03 5.8)"/>
    <path class="cls-2" d="M1286.58,362.85l-1.19-.55A3.82,3.82,0,0,0,1286.58,362.85Z" transform="translate(-0.03 5.8)"/>
    <path class="cls-2" d="M1258.67,387l.69,1.68C1259.88,388.29,1259.13,387.73,1258.67,387Z" transform="translate(-0.03 5.8)"/>
    <path class="cls-2" d="M1317.68,321.6a2.19,2.19,0,0,0-1.5-.28C1317.17,321.86,1318.35,322.89,1317.68,321.6Z" transform="translate(-0.03 5.8)"/>
    <path class="cls-2" d="M1259.08,361.87a1.83,1.83,0,0,0,.36,1A1.38,1.38,0,0,0,1259.08,361.87Z" transform="translate(-0.03 5.8)"/>
    <path class="cls-2" d="M1315.11,322c.16.1.27.13.42.21.11-.42.26-.79.65-.91C1315.45,320.91,1314.82,320.77,1315.11,322Z" transform="translate(-0.03 5.8)"/>
    <path class="cls-2" d="M1217.5,415.54a1.07,1.07,0,0,1-.22-.1C1217.42,415.64,1217.46,415.61,1217.5,415.54Z" transform="translate(-0.03 5.8)"/>
    <path class="cls-2" d="M1211,413.1a.18.18,0,0,1,.08.14C1211.23,413.27,1211.23,413.25,1211,413.1Z" transform="translate(-0.03 5.8)"/>
    <path class="cls-2" d="M1325.09,315.16c.22-.27-.06-.19,0,0Z" transform="translate(-0.03 5.8)"/>
    <path class="cls-2" d="M1330.15,320.08a2.36,2.36,0,0,0,.34.78A3,3,0,0,1,1330.15,320.08Z" transform="translate(-0.03 5.8)"/>
    <path class="cls-2" d="M1318.24,332.87h0C1318.48,333.12,1318.43,333.07,1318.24,332.87Z" transform="translate(-0.03 5.8)"/>
    <path class="cls-2" d="M1325.94,315.56a1.71,1.71,0,0,0-.64-.21A2,2,0,0,0,1325.94,315.56Z" transform="translate(-0.03 5.8)"/>
    <path class="cls-2" d="M1325.44,314.9a1.67,1.67,0,0,0,.33,0C1325.65,314.62,1325.52,314.49,1325.44,314.9Z" transform="translate(-0.03 5.8)"/>
    <path class="cls-2" d="M1324.75,315.49a.74.74,0,0,1,.55-.14.4.4,0,0,1-.21-.19A2.73,2.73,0,0,1,1324.75,315.49Z" transform="translate(-0.03 5.8)"/>
    <path class="cls-2" d="M1236.26,395.74l-.16-.09C1236.26,396.42,1236.31,396.25,1236.26,395.74Z" transform="translate(-0.03 5.8)"/>
    <path class="cls-2" d="M1301.61,353.23s0-.06,0-.09l-.07,0Z" transform="translate(-0.03 5.8)"/>
    <path class="cls-2" d="M1301.36,355c-.79-2.07-.4-2,.17-1.84l-3.12-3.94Z" transform="translate(-0.03 5.8)"/>
    <path class="cls-2" d="M1264.21,381.41l1.57.79c.68,2.67-.42,2.37,1.48,3.71-3-4.5,2.29-2.31-.75-6.81l1.1.62c-.16,0,0,.32-.15.36,2.37,1.52-1.62-3.66-.06-3.81a1.61,1.61,0,0,1,1.46,1.23l.1-1.71c.31-.09.79.73.48.82l1.08-1.28.08.13a22.4,22.4,0,0,1-.74-2.81c.78.4.16.59.64,1.08l0-1.59c1.11.94,1.29,2.49.67,2.68,3.79,4-.18-1.55,3.11,0l-.29,1.05c2.21,2.21,2.11.92,4,1.95-.76-.7-4.34-2.87-4.32-4.54.46.18.87.13.67-1.07,1.11,1.58,1.26.9,1.72.44l1.43,2.13c.14-1-.65-2-1-3.22.78-.23,2,1.3,3.14,2.57,1.25-.37-2.51-2.12-1.58-3.35,1.4.22,1.4-1.05,1.54-3,1.09.31.78,1.36,1.41,1.81l-.63-2c.15-.05.47.5.63.77,0-1-1.42-2.13-1.12-3.18-1.41-2.45,3.77,2.4,2.81-.83.63.45.79,1.36,1.42,2.13a14.45,14.45,0,0,0-.49-4.95l1.78.81c-1.69-1.16-2.2-3.57-2.57-5.58-.74-.62-1.39-1.16-1.73-1.39l.32-1.88a5.56,5.56,0,0,1,1.18,2.06c0-.23-.09-.45-.15-.64.93.51,1.56,1.87,2.09,3.24l-1.29-1a20.23,20.23,0,0,0,2.23,4.26,1.45,1.45,0,0,1,0-.82,3.67,3.67,0,0,0,.51.93c.19.2,0-.35-.2-1l1.86,2.19-.58-1,2.43.5c-.6-3.06-2.09-7.16-1.13-9.25.77,2,1.83,2.89,3.2,4.95-1.91-1.86-.62,1.78-1.76,1.91.59-.07,1.16,1,1.28,1.39l.15-3c1.11,1.69,1.18,1,2,1.46-2.55-3.11-.39-3-.47-4.4.8,1.09,1.42,2.33.5,2.56,2.51,1.94-1.59-4.61.66-3-.16.15-.38,0-.07.66-.24-1.28,1.33-1.19,1.74-.06l-.16.15a3.54,3.54,0,0,0,2-5.4c.25.36,2.13,3.51,2.44,4.13l-4.22-11c1.43,2.56,6,7.85,6,9.89.52.15,1.15.32,1.18-.95-.43-.21-2.84-3.18-2.72-3.58,2.54,2.21,1.48,1.1,3.93,2.79-.65-.32-2.87-4.35-2.32-4.54.31.62,2.55,3.73,2.65,4.24l-1.34-4.51c.16.86,2.07,3.2,3,4.09-.61-.66,1-.6,1.12-1.18l-1.08-.54c1.69-.3-2.2-6.12-.76-6.8.35.88,2.77,5,3.75,5.06-1-2.12-4.78-10.13-4.6-12.38l1,1,.06-1.84a134.77,134.77,0,0,1,4.56,13.3c1.07.54,1,1.2,1.66.61a1.58,1.58,0,0,1,.46,2l2.15-.47c-1.56-2.19-.18-3.11-1.48-4.94l-.32,3.56c-1.56-2.19-3.14-7.08-1.66-7.49.9.68,2.41,4.15,2.93,4.88-.35-.88.18-2.24.65-1.77l.28,1.54c1.23.4-.86-3.7,1.37-2.09.37,0,2.74,2.34,1.91,1a81.68,81.68,0,0,1-8.4-12.27,24,24,0,0,1,4.25,2.54c1.78,1.71,2.44,5.25,4,6.72a6.62,6.62,0,0,1-.68-1.86c.64.33,1.13,2,1.59,1.28-1.39-2.35,1.43-.66-1-2.12.2-1.07,1,0,1.65-.56-1.2-1.32-2.62-5.45-2.41-6.52a8.65,8.65,0,0,0,1.27,1.57c1.43-.63,2.8-.06,4-.82.47.48,1.49.78,1.88,1.92-.09-.51-.43-1.39-.1-1.69,2,1.52-.63.85,1.46,2.87-.81-1.36-.22-2.46-.23-3.63-1.49-1.95-1.48.4-1.48,1.57-1.83-2.83-2.83-6.39-2.41-8.52.56-1.36,1.62,1.55,1.54,1,2.21-.72-1.58-6,1.31-5,1.79,1.4,2.34,3.58,3.32,4.79-.38,1.22-2-.33-2.51.1l1.24.41c.13.77-.13,1.58-.76,1.25,1.56,1.29,3.39-1.75,5.81-1.19-.13-.77-.08-1.68-.76-2.28l-.3.55c-1.36-1.18-.43-2.58-1.45-2.88,0-1.43-.36-3.48,1-3.22l1.48,2c-.4-.59-1.35-.87-1.2-.08-.22-1.15,3.13,1.94,1.8-1l-1.52-1c0-1.44-.66-4.13.53-4-1.65-1.82,0,.35-2.11-1.69,2.38,2.67-2.07,1.14.69,3.77-2.33-2.41-1.73-.55-4-2.44.46.67,1.09,1.14.22,1.22a5.21,5.21,0,0,1,.24.69l-.07,0,.09.06c0,.12,0,.14,0,0a3.81,3.81,0,0,1,1,.83c.68,1.77-.39,2.38-.22,3.42-.59-.08-.34-.89-1-1.48l.26,1.55c-1-1.48-2.64-1.85-2.3-3.32l-.86.46c-1-.54-1.91-.45-1.91.45-.6-.07.1,2.3-.33.91l-.68,1.76-.26-.37c-1.39.63-1,4.18-4.2,2.39-.18.66-.32,1.41-1.31,1.45l-1-1.21c-.25.81-2.49-.23-1.85,1.28-2.87-3.12-3.15,1-4.51,1l1.07,1.72c-.72.33-1,1.23-1.41,2.45l1,1.46c.1,1.69-2.51.13-3.53,1-.3-.62.08-.66.51-.44-3.56-2.5-1.18,4.32-4,2.66.06.74-.28.7-.74.46,0,0,0-.06,0-.13a.37.37,0,0,0-.14.07c-.3-.17-.64-.38-.94-.52a4,4,0,0,0,.88.57,2.09,2.09,0,0,0-.54,1.2l-1.21-1.5s0,.05,0,.1c-.73-.37.23.94,1.22,2a4.4,4.4,0,0,0,.19,1.27c-2-2.4-.33,1.47-2.54-1,.66,1.5-1.06,2.17.66,5.12-.26-.36-.48-.47-.31-.62-.6-.06-1.2-.13-1,.9l-1.53-1.93,1,3.3a5.1,5.1,0,0,1-2.58-3.38c.4,3.22-.38,1.57.19,4.65l-.83-1.35c-.34.3.26,2.46-.69,1.52-2.52-1.94-4.33,2.4-8,1.54,3,3.57-2.15-1.06-.2,2-.75-.82-1.39-1.14-1.59-2.16-.47,1.63-2.61-.34-1.63,2.68-.75-.83-.69-1.49-1.16-2,0,.25.19,1-.29.55s-.37-.87-.47-1.38c-1,.91.81,3.79,2.54,6.47-1.41-.86-1.57-.5-.79,1.5-.79-.73-1.73-1.4-1.26-2.18-.47.13-3.21.35-1.8,2.48-.49-.45-.64.22-.58.53-.94.47-1.15.33-1.85,1.11l.47.19c1.42,2.77-.31,1.05-.78,1.82l-.16-.27c-2.83-.75-.07,1.34-3,.32l1.17,1.52c2.21,3.49-2.75-1.06-2.74.85l.95.68c.32,1.5-4.57-3.66-5.35-3.74-.32-.22-.17-.59-.17-.91-2.67-1.1,1.27,2.18.66,3.32-1-1-1.75-3-2.54-2.74-1-.67.66,4.91-1.7,3.4.79.72,1.58,1.44,1.59,2.39-.46.78-4.11-1.95-2.82,1.18a2.59,2.59,0,0,1-.6-.59c0,1.06-.87,2.34-.15,4-4.31-5.08-1.34,4.9-4.87-.09l-1.39,1.39-.32-.54c-1.25.4-.76,1.84-.27,3.29-.47-.17-.63-.76-.8-1-2.19.05-2.19.37-1.66,3.73l-1.29-1.52c.34,1.17-4-1-4,1.92a2.45,2.45,0,0,1-.36-.83c-.27,3.06-7.12-1.65-3.49,4.63l0,2.22c1.72-.55,1.63,2.69,2.91,3.25-.3.73-2.69-.75-2.24-1.54l.32.22c-2-3.22-2.51.16-4-1.93-2.61,2.13-6.49,2.39-9.14,4.13l2,2.14-1,.52c-.63-.38-1.67-1.62-1-2-1.32-1.09-.24,1.9.12,2.43-1.95-.05-1.54-3.11-2-2.89l-.39.56.32.19c.29,1.27,1,2.32.16,2.77-.83-.12-1.32-1.27-1.57-1.22-.12-.17-.25-.2-.34.14l-1.27.63,1.82,1.53c.18,1.28-1.12.67,1,2.4-3.15-2.69-5,1.91-6.22,1.25.31,1.87-.39,2.35-1.36,2.81.5.23,2.18,2.22,1.26,2.51-2.94-4.49-2.72-.87-5.61-3.51,2,1.65-1.69,2.05,1.31,4.34-.86.11-1.24-1.58-2.46-2.24-.19,2.74-4,1.31-5.35,3.21.4.58,1.34,1.22,1.59,2.34l-3.06-2.09c-.14.54,2.13,3.48,0,2,.44.41,1.12,1,1,1.37-4.1-.06-5.09,4.15-8.33,5.36l10.36,4.86a1.57,1.57,0,0,1,.94-.24,3.64,3.64,0,0,1,.82.08,3.71,3.71,0,0,1,.5.13l.29.09-.93-.32c-.2-.08-.22-.12-.24-.16-.32-.08-1.61-.66-2.49-1a6.66,6.66,0,0,1,2.58.76c-1.09-.76-1-.93-1-1s.12-.2-.69-1.17a3.86,3.86,0,0,0,.16.48A15,15,0,0,0,1206,408c-1.51-1-3.35-1.66-4.82-2.88.93,1.56-.5,1.41-2,1.88a2.67,2.67,0,0,0-1.68,1.12c-.27.54-.1,1.3.94,2.15-.89.33-1.09-.74-2-.69,1.42,1.07,1.6,1.7.76,3l-.4-.19c0,.67,0,1.27,0,1.76l-.43,11.51L1207.2,419c1.41-.87,3-.48,5.25-1.05l-1.3-1.39c.59-.14,1,.27,1.54.49-1.24-2.67-1.33.8-2.79-2.06,2.92,2.62,3.12-2.3,6.16.89.68-.5-1.53-1.6-.84-2.09l.89.81-.75-1.35c.59-.13,1.71.88,2.33,1.67-.18,0-.13.45-.19.61,1.41.68,1.32-1.61,1.79-1.39l-1.09-.09c1.17-2.27,4.36-2.72,4.69-6l-.68-.61c.37-2.35,1.68,0,2.72-1.77l.07.21c-.24-.94-.11-1.6.36-1.82.25,1.12,1.93,1.1,2.13,2.4.42-2.53-.1-1.67-1.11-5.06l1.11,1c-.47-1.33-.86-1.92-.34-2.78.14,1.48,1.83,1.46,2.14,3.32,3.51,1.44.38-4.36,3.93-1.08-1.72-3.84-2.72-.83-2.84-1.83-1.13-.83-1.23-2.91-.49-2.94.56-.3,4,3.58,5.2,2.59-.14.07,0,.33-.1.41,1.09.49.08-1.83,1.67-.89-1.15-2.24.84-.44-.94-3.06l-.73,1.45c.16-1.16-1.41-4.59.74-3.94a6.57,6.57,0,0,1,.53,2c.87.52.24-.95,1.14-.42,1.78,2.63-1,1.59-.28,4.06,1.13.82,0-2.83,1.65.19-2.07-3.88,1.58-.46.46-3.78l1.07,1.57c0-.34-.29-1.26,0-1.41l1,2.32c-.54-2.2,2.42.5,2.42-.91-1.36,1.07-1.67-1.62-3.08-2.3.23-3.31,3.92,3.28,5.31,1.14-.1.41-1.65-.21-1.76-1.21a4.35,4.35,0,0,1,2.32.92c1-1.25-1.34-1.44-1.49-2.78,1.8,1.56.08-1.22.2-2.22l1.14,1.55c2.19,0-2-3.53.22-3.27l1,2.56.28-1.05,1.15,1.88c-.21-1.86.27-1.68,1.36-1.71-1-1-1.95-2.91-1.34-3.43,1.11.61.83,1.67,1.58.78.5,1.13,1.16,2.52-.28,1.37.33.54.51,1.13.83,1.66,1.25.73,1.37-.61,1.69-.87a.73.73,0,0,1-.62-.1l-.24-3.13a2.55,2.55,0,0,1,1,1.61c.15-.37-.18-1.22.12-1.64.81,1.35,1.78,2.64,1.65,3.65l.25-2.33c.48.49,1.74,1.05,1.92,1.64,1.24.25-.06-3.72,1.59-3.39a1.49,1.49,0,0,1-.14-.91c1.09-.34,3,.67,2.78-1.82l2.22,1.87c.45-1.1-2.85-2.31-2.11-4.15.44-1.41,1.75,1.7,2.54,2.1-.34-1.49-1.18-4.44,1-3.2C1264.83,381.22,1264.36,381,1264.21,381.41Zm9.38-8.14c0,.47.36,1.77-.43.94C1272.11,372.24,1272.89,373,1273.59,373.27Zm12.83-14.52c.22.63-.19.52-.86.1C1285.66,358.59,1285.91,358.5,1286.42,358.75Zm36.47-40.3,0,.09C1322.06,318.2,1322.38,318.35,1322.89,318.45Zm1.39.1a1.35,1.35,0,0,0-.39-.71c.2.45,0,.62-.31.66C1323.92,318.88,1324.23,319.09,1324.28,318.55Zm-98.56,68.82.47.28C1226.13,388.39,1225.94,387.9,1225.72,387.37Z" transform="translate(-0.03 5.8)"/>
    <path class="cls-2" d="M1286.15,362.13a6.8,6.8,0,0,1-.68-.8A1.33,1.33,0,0,0,1286.15,362.13Z" transform="translate(-0.03 5.8)"/>
    <path class="cls-2" d="M1258.54,386.68h0a2.91,2.91,0,0,0,.17.3Z" transform="translate(-0.03 5.8)"/>
    <path class="cls-2" d="M1318.7,341.67a2.27,2.27,0,0,1-.92-.59C1318,341.48,1318.34,341.76,1318.7,341.67Z" transform="translate(-0.03 5.8)"/>
    <path class="cls-2" d="M1327.52,312.59l-.34.8c.24-.26.58,0,.89.19C1327.81,313.21,1327.35,312.73,1327.52,312.59Z" transform="translate(-0.03 5.8)"/>
    <path class="cls-2" d="M1339.17,319.33c0-.25.17-.14.13-.4l-.5-.74A.68.68,0,0,0,1339.17,319.33Z" transform="translate(-0.03 5.8)"/>
    <path class="cls-2" d="M1331.52,317.64c.92,1.34,1,.63,1.27.11,0,0,0,.05-.08.05C1331.62,315.8,1331.57,316.72,1331.52,317.64Z" transform="translate(-0.03 5.8)"/>
    <path class="cls-2" d="M1332.86,317.64a.48.48,0,0,1,.37-.28C1332.79,316.56,1333,317.3,1332.86,317.64Z" transform="translate(-0.03 5.8)"/>
    <path class="cls-2" d="M1324.89,316.87c.43.22-1-1.83-.52-1.34C1323.48,313.64,1324.38,318.49,1324.89,316.87Z" transform="translate(-0.03 5.8)"/>
    <polygon class="cls-2" points="1334.71 327.74 1333.48 326.14 1334.11 327.65 1334.71 327.74"/>
    <path class="cls-2" d="M1330.61,322.81l1,0a1,1,0,0,1-.19-.69C1331,322.37,1330.28,322.32,1330.61,322.81Z" transform="translate(-0.03 5.8)"/>
    <path class="cls-2" d="M1331.4,322.16a.53.53,0,0,0,.36-.63A1.06,1.06,0,0,0,1331.4,322.16Z" transform="translate(-0.03 5.8)"/>
    <polygon class="cls-2" points="1334.11 328.83 1333.68 328.6 1333.13 328.78 1334.11 328.83"/>
    <path class="cls-2" d="M1323.18,327.14l-.43,1c.3.62.73.84.85.44C1323.52,328,1323.65,327.63,1323.18,327.14Z" transform="translate(-0.03 5.8)"/>
    <path class="cls-2" d="M1328.37,330.32a5,5,0,0,1-1.15-1.07l1.32,2.1Z" transform="translate(-0.03 5.8)"/>
    <path class="cls-2" d="M1326.55,332.19c.3.62,0,2.34.85,1.61C1327.11,333.18,1327.53,332.23,1326.55,332.19Z" transform="translate(-0.03 5.8)"/>
    <polygon class="cls-2" points="1313.8 342.52 1313.97 342.37 1311.71 338.98 1313.8 342.52"/>
    <path class="cls-2" d="M1309.58,351.21c1.39.25-1.19-2.23.26-1.73-.33-.93-1.19-.4-1.44-1.23C1308.44,349.43,1307.85,349.14,1309.58,351.21Z" transform="translate(-0.03 5.8)"/>
    <path class="cls-2" d="M1308.4,348.25a5.76,5.76,0,0,0-.08-.7A2.12,2.12,0,0,0,1308.4,348.25Z" transform="translate(-0.03 5.8)"/>
    <polygon class="cls-2" points="1211.98 419.32 1211.84 419.18 1211.93 419.27 1211.98 419.32"/>
    <path class="cls-2" d="M1210.79,412.07l.82,1,.11.13s0,0,0,0h0l0-.05c-.19-.26-.45-.62-.66-.93C1211.06,412.32,1211.18,412.51,1210.79,412.07Z" transform="translate(-0.03 5.8)"/>
    <path class="cls-2" d="M1278.09,376.51l-.32-.54c-.47-.5-.62-.45-.94-.36Z" transform="translate(-0.03 5.8)"/>
    <polygon class="cls-2" points="1269.62 385.86 1269.77 385.82 1268.18 384.06 1269.62 385.86"/>
    <path class="cls-2" d="M1265.25,386.84c.31-.09.3-.73.61-.83C1265.56,386.75,1263.49,384.51,1265.25,386.84Z" transform="translate(-0.03 5.8)"/>
  </g>
  <g>
    <path class="cls-2" d="M1426.59,887.45c1.25.84,1.58-.89,1.92-1.05C1426.13,885.55,1426.44,887.87,1426.59,887.45Z" transform="translate(-0.03 5.8)"/>
    <polygon class="cls-2" points="1403.06 885.02 1403.76 884.62 1399.78 884.4 1403.06 885.02"/>
    <path class="cls-2" d="M1382.68,868.62c.63,3.53,7.63,3.38,10.81,6.16l.3.88,2.7-1.19C1391.89,872.52,1385.44,870.92,1382.68,868.62Z" transform="translate(-0.03 5.8)"/>
    <path class="cls-2" d="M1374.55,857.51c.17,1.34-2.8-.36,2.39,1.62a4.66,4.66,0,0,1-.33-.49C1376.16,858.42,1375.55,858.11,1374.55,857.51Z" transform="translate(-0.03 5.8)"/>
    <path class="cls-2" d="M1376.61,858.64c2.2,1-1-1.56,0,0Z" transform="translate(-0.03 5.8)"/>
    <path class="cls-2" d="M1366.28,854.2l3.32.52c-.31-.88-2.8-2.27-1.64-2.23C1364.77,851.53,1365.09,852.41,1366.28,854.2Z" transform="translate(-0.03 5.8)"/>
    <path class="cls-2" d="M1362.63,854.73l1.68.35C1364.17,854.71,1363.82,854.43,1362.63,854.73Z" transform="translate(-0.03 5.8)"/>
    <path class="cls-2" d="M1367.86,855.83l-3.55-.75c.21.62-.16,1.47,1.59.42C1365.27,856.14,1366.25,855.71,1367.86,855.83Z" transform="translate(-0.03 5.8)"/>
    <path class="cls-2" d="M1369.45,857.1c1.34,1.35,3.24,2.71-.08,2.19,2.83,1.16,4.24,1.26,4.27.69S1372.3,858.25,1369.45,857.1Z" transform="translate(-0.03 5.8)"/>
    <path class="cls-2" d="M1380.3,870.71l1.74,1.83,2.27.09C1383.18,872.59,1380.57,869.85,1380.3,870.71Z" transform="translate(-0.03 5.8)"/>
    <path class="cls-2" d="M1349,844.09c-.44.46.27,1.93.14,2.74l2.43.41C1350.68,846.33,1348.78,845,1349,844.09Z" transform="translate(-0.03 5.8)"/>
    <path class="cls-2" d="M1349.16,846.83l-3.62-.62C1348.32,847.71,1349.05,847.52,1349.16,846.83Z" transform="translate(-0.03 5.8)"/>
    <polygon class="cls-2" points="1360.69 863.12 1366.87 863.71 1359.67 862.66 1360.69 863.12"/>
    <polygon class="cls-2" points="1336.82 844.01 1339.24 843.59 1335.09 844 1336.82 844.01"/>
    <path class="cls-2" d="M1328.61,834.63c1.84-.42-1-2.64.72-2.63a18.15,18.15,0,0,0-6.68-.79A11.5,11.5,0,0,1,1328.61,834.63Z" transform="translate(-0.03 5.8)"/>
    <path class="cls-2" d="M1319.25,831.06a21.43,21.43,0,0,0,3.4.15A10.61,10.61,0,0,0,1319.25,831.06Z" transform="translate(-0.03 5.8)"/>
    <path class="cls-2" d="M1340.24,843.34a3.85,3.85,0,0,0-1.78-2.74l.53,2.13Z" transform="translate(-0.03 5.8)"/>
    <path class="cls-2" d="M1339,842.8l0-.07-2.68-1.36Z" transform="translate(-0.03 5.8)"/>
    <path class="cls-2" d="M1340.55,843.5l-.31-.16C1340.28,843.55,1340.33,843.64,1340.55,843.5Z" transform="translate(-0.03 5.8)"/>
    <path class="cls-2" d="M1353.1,851.86c-2.29-.05-6.61-1-3.49,2.12C1351.45,853.58,1349.67,851.78,1353.1,851.86Z" transform="translate(-0.03 5.8)"/>
    <path class="cls-2" d="M1341.19,846.16c1.08.63,2.14,1.32,3.21,2,.13-.44-.19-1.33.93-1.31C1344,846.61,1342.58,846.36,1341.19,846.16Z" transform="translate(-0.03 5.8)"/>
    <polygon class="cls-2" points="1339.26 851.67 1341.16 851.96 1339.96 851.24 1339.26 851.67"/>
    <path class="cls-2" d="M1324.41,835.24a14.72,14.72,0,0,1-5.28-1.44,42.31,42.31,0,0,0,5.65,3.2C1325.28,836.64,1326.52,836.16,1324.41,835.24Z" transform="translate(-0.03 5.8)"/>
    <path class="cls-2" d="M1331.44,839.05l-.37-.06C1331.21,839.21,1331.35,839.33,1331.44,839.05Z" transform="translate(-0.03 5.8)"/>
    <path class="cls-2" d="M1301.14,825.69c.07.13.11.28.17.41.06-.08.11-.16.18-.24Z" transform="translate(-0.03 5.8)"/>
    <path class="cls-2" d="M1325,837.45a4.48,4.48,0,0,0,3.43.92,29.72,29.72,0,0,1-3.62-1.37C1324.56,837.17,1324.47,837.3,1325,837.45Z" transform="translate(-0.03 5.8)"/>
    <path class="cls-2" d="M1313.91,829.48c.63.66,1.37,1.34,2.16,2C1315.55,830.65,1314.37,829.19,1313.91,829.48Z" transform="translate(-0.03 5.8)"/>
    <path class="cls-2" d="M1330.78,838.33l.25,0C1330.71,837.81,1330.69,838,1330.78,838.33Z" transform="translate(-0.03 5.8)"/>
    <path class="cls-2" d="M1330.78,838.33a9.87,9.87,0,0,0-2.38,0,17.15,17.15,0,0,0,2.67.62A2.56,2.56,0,0,1,1330.78,838.33Z" transform="translate(-0.03 5.8)"/>
    <path class="cls-2" d="M1291.26,833.31c.89-1.34,5.35-1,8,2.07,3.76.37,3.75-5.34,2.06-9.28-.39.59-.65,1.17-4.41.53.84,1.31,6.68,5.18,3.25,5.22-4.81-1.24-3.44-2.14-5.28-3.87,1.05,2.62-6.85.1-7,3.19l4.33.8C1292.05,832.42,1290.34,832.45,1291.26,833.31Z" transform="translate(-0.03 5.8)"/>
    <path class="cls-2" d="M1307.7,829.12l1.48.44a15.63,15.63,0,0,1-4-4.11c-2.64-.32-3.36,0-3.74.41l6.79,3.25Z" transform="translate(-0.03 5.8)"/>
    <path class="cls-2" d="M1315.43,832.35c-1.78,1-5.44.26-4.16,2.86,4.12,1.73,3.44,0,6.17.44-6.71-2.67,2.28,0-2-3.09a25.07,25.07,0,0,1,3.73,1.24,37.56,37.56,0,0,1-3.06-2.3l.1.17h0l0,0c.19.32.23.49,0,.22a.45.45,0,0,1-.16,0,1.8,1.8,0,0,1-.56.46c-1.75-1.21-.11-.55.56-.46.06-.06.15-.11.19-.19l0,0c-2.31-.76-4.66-1.41-7-2.11A36.54,36.54,0,0,0,1315.43,832.35Z" transform="translate(-0.03 5.8)"/>
    <path class="cls-2" d="M1344.54,855.62a.46.46,0,0,1,0-.46C1344,855.14,1343.77,855.2,1344.54,855.62Z" transform="translate(-0.03 5.8)"/>
    <path class="cls-2" d="M1342.33,853.38a3.38,3.38,0,0,1,2.72.49c1.1,1.12-.37.74-.55,1.29,1.12,0,3.77.47,1.24-1.7l-.56,0c-2.34-1.81-4.77-5.39-4.22-5.37A12.1,12.1,0,0,0,1342.33,853.38Z" transform="translate(-0.03 5.8)"/>
    <path class="cls-2" d="M1328.55,843.17l-5.8-1.78,2.14,2.65.24-.88C1328.08,844.92,1327.88,843.61,1328.55,843.17Z" transform="translate(-0.03 5.8)"/>
    <polygon class="cls-2" points="1300.83 830.43 1302.3 829.09 1298.07 830.03 1300.83 830.43"/>
    <polygon class="cls-2" points="1293.57 827.45 1294.47 826.12 1292.2 826.15 1293.57 827.45"/>
    <path class="cls-2" d="M864.68,737.46l-1.75.41A8.24,8.24,0,0,0,864.68,737.46Z" transform="translate(-0.03 5.8)"/>
    <path class="cls-2" d="M877.29,738l.34-.76C877,737.64,876.78,738,877.29,738Z" transform="translate(-0.03 5.8)"/>
    <path class="cls-2" d="M1112.31,756.63c-2.09-2.14-4.27-5.15-4.44-3.34l.31,1.89A8.87,8.87,0,0,1,1112.31,756.63Z" transform="translate(-0.03 5.8)"/>
    <path class="cls-2" d="M981.58,738.91l.66.65,2-1.36Z" transform="translate(-0.03 5.8)"/>
    <path class="cls-2" d="M978.72,745.76l-3.16-1.56A14.83,14.83,0,0,0,978.72,745.76Z" transform="translate(-0.03 5.8)"/>
    <path class="cls-2" d="M795.89,740.1,794,742C797.12,741.81,795.68,741,795.89,740.1Z" transform="translate(-0.03 5.8)"/>
    <path class="cls-2" d="M1219,792a23.59,23.59,0,0,0-4.86-2.9C1216.29,790.94,1217.79,793.09,1219,792Z" transform="translate(-0.03 5.8)"/>
    <path class="cls-2" d="M870.24,719.19c-1.09.28-1.57.62-1.55,1C869.82,719.93,870.46,719.62,870.24,719.19Z" transform="translate(-0.03 5.8)"/>
    <path class="cls-2" d="M1208.06,786.86c.31.29.64.51,1,.79a21.29,21.29,0,0,1,5.08,1.43C1212.5,787.7,1210.52,786.48,1208.06,786.86Z" transform="translate(-0.03 5.8)"/>
    <path class="cls-2" d="M552.84,789.82c-.2,0-.42,0-.61,0C552.27,790.06,552.51,790,552.84,789.82Z" transform="translate(-0.03 5.8)"/>
    <path class="cls-2" d="M478.81,804.58c.6-.43,1.66-1,2.64-1.53A9.23,9.23,0,0,0,478.81,804.58Z" transform="translate(-0.03 5.8)"/>
    <path class="cls-2" d="M1264.86,808.58c1.58.54.32-.07,0,0Z" transform="translate(-0.03 5.8)"/>
    <path class="cls-2" d="M1269.67,818a1.11,1.11,0,0,0-.94.52A1.41,1.41,0,0,1,1269.67,818Z" transform="translate(-0.03 5.8)"/>
    <path class="cls-2" d="M1188.88,791.43l-.14,0C1189.1,791.85,1189,791.77,1188.88,791.43Z" transform="translate(-0.03 5.8)"/>
    <path class="cls-2" d="M1266.87,810.28a13,13,0,0,0-1.76-1.3A12.74,12.74,0,0,0,1266.87,810.28Z" transform="translate(-0.03 5.8)"/>
    <path class="cls-2" d="M1266.87,809.39l1.28.72C1268.46,809.92,1268.35,809.68,1266.87,809.39Z" transform="translate(-0.03 5.8)"/>
    <path class="cls-2" d="M1262.69,807.77a15.18,15.18,0,0,1,2.42,1.21c-.26-.24-.35-.38-.25-.4C1264.4,808.42,1263.75,808.18,1262.69,807.77Z" transform="translate(-0.03 5.8)"/>
    <path class="cls-2" d="M680,748.1c-.11,0-.24-.05-.37-.1C678.15,749,678.84,748.78,680,748.1Z" transform="translate(-0.03 5.8)"/>
    <path class="cls-2" d="M1066.14,763.32a1.18,1.18,0,0,0,.2,0l-.22-.11Z" transform="translate(-0.03 5.8)"/>
    <path class="cls-2" d="M1060.1,763.27c2.94-1.55,4.27-1,6-.1l-.75-5.31Z" transform="translate(-0.03 5.8)"/>
    <path class="cls-2" d="M834.47,737.66l4.13,1.52c-5,2.61-8.53,1.76-4.67,3.92.27-2.71,4.26-2.93,8.25-3s8-.21,8.31-2.92l2.7,1.17c-.78-.06-.91.25-1.67.19,5.23,2.64,4-3.89,10.79-3,2.37.48,4,1.31,2.37,1.91l5.33-1.2c1.54.14,1.13,1.08-.4.93,2.7-.09,5.39-.07,8.09-.11l-.07.16a33.64,33.64,0,0,1,5.16-2.51c2,.86-1.06.53-.56,1.23l4.54-1.13c1.75,1.49-2,2.69-5.1,2.36,3.9,5.6,3.78-1.25,12.6,2.47l-4.25.44c2.54,3.24,5.88,2.32,10.49,4.52-1-1.06-9.2-5.4-4.28-6.46A8.13,8.13,0,0,0,902,738c-.11,1.91,2.47,1.65,5.66,1.78l-.4,2.54c3.49-.47,3.32-1.79,5.44-2.78,3.82.55,4.45,2.58,5.2,4.32,6.09,1-4-3.57,3.35-3.36,5,1.48,8.69.71,15-.15,3.48,1.28-.79,1.49.41,2.36l3.39-1.68c.77.14.45.74.29,1,2.75-.49.5-2.52,4.78-2.74.73-1.33,2.78-.1,5.32,1.22s5.59,2.7,8.39,1.46c1.18.9-.82,1.48-.56,2.51,7.38-1.11,6.29-.68,12.53-2.68l4.75,2.34c-3.39-2.4,1.62-4,6-5.29a30.15,30.15,0,0,0-2.85-2.54c2.27-.18,4.53-.27,6.78-.35.73.55-.07,1.31-1.3,2.18.48-.13.93-.27,1.29-.4,2.2,1.33.75,2.58-1.14,3.71-.72-.63-1.43-1.3-2.12-2-1.84,1.25-3.62,2.79-3.5,4.3a5.62,5.62,0,0,1,2.24-.38c-.48.35-.81.69-.65,1s.94-.15,2.11-.62l1,3.07.53-1.06,8.23,3.19c3.27-.9,6.41-2.18,10-3.16a40.8,40.8,0,0,1,5.75-1.18,30.63,30.63,0,0,1,6.78-.19c-2.78,1.58-1.14,3.25-1.72,5.67-2.15-3.14-7.69-.2-12.59-1.59,2.57.71,1.79,1.78,1,2.08l9.35-.86c-.56,1.94,1.61,1.87,3.78,3.15-1-4.29,7.12-1.31,11-1.79,0,1.36-1.16,2.54-5.51,1.34,4.28,3.93,7.2-3.36,11.49.1-1.09-.18-1.63-.5-2.19.09,2.76-.67,8.73,1.48,7,2.34l-1.08-.19c1.76.47,4,1,6.41,1.43s4.92,1,7.3,1.28c4.76.6,8.88.55,9.79-1a19.46,19.46,0,0,1-2.43,4.35q7.6-4.12,15.35-8.23c-1.8,2.59.86,10.33-5.42,10.59a13.8,13.8,0,0,0,7.37,1.61c-1-.7-1.86-4.84-.23-4.7,3.54,4.28,2.59,2.47,7.22,6.53-1.57-1.05,1.46-5,4.15-4.16-.59.56-.89,4.44-2,4.65l7.89-2.61c-1.89.35-1.25,3.61-.07,5.23-.47-1,5.82,1.59,7.74,1.62l-2.6-1.74c7.46,2.6,9.2-4.11,16.71-1.73-1.17.63-3.8,4.86-.13,6.51,2.37-1.72,10.82-8.43,18.07-8.2l.91,1.63c1.86,0,3.73,0,5.58.08a115.17,115.17,0,0,1-20.89,8.12c2.55,1.82.37,1.72,4.64,2.82,1.15,1.62-2.83,1.14-4.1.85l9.64,3.59c.16-1.35,2.24-1.46,4.31-1.51s4.12,0,4.26-1.09l-2.87-.17-2.88-.11-5.76-.2c.16-1.35,2.25-2.73,5.17-3.47a17.78,17.78,0,0,1,4.85-.53,16.76,16.76,0,0,1,5.23,1.07c1.46,1.58-2.73,4.16-2.84,5.07,1.17-.6,7.12.39,7.56,1.21l-3.37.45c3.56,2.18,7.38-1.41,11.26,2.5,1.56.67,3.73,4.8,4.5,3.37-1.67-3.74.7-12.94,3.17-14.58.51.38,7.62,5.45,9,7.57,1.87,3.19-5.76,4.09-4.16,6.82.32-.66,2.06-1,2.75-1.1,1.48,1.17-1.41,1.93,2.34,2.86,1.47-2.38,7.33,2.75,2.45-1.6,3.82.48,3.61,1.83,7.83,3.14-.76-2.12,5.72-4.38,9.57-3.88-.44.58.06,1.7.32,2.23,1.81.68,3.39,1.35,4.84,2s2.77,1.37,4.08,2a76.92,76.92,0,0,0,8.55,3.86c.4.85,3.39,2.81,1.59,3.39,1.14-.09,2.35-.63,4.46.08,3.22,3.7-4.77-1.37-2.68,2.42.81-1.39,6.15-.06,9.47.11,0-2.63-6.71-3-10-3.14,1.15-3.18,7.57-4.58,15.25-3.41,5.91,1.39,1.65,3,2.8,2.91,10.29,4.69,11.11-2,19,3.76,2.67,3.37-1.44,4-1.24,5.78-4.85-1-6.49-4-9.61-5.16l3.43,2.44c-1.71.1-5-.59-6.37-1.83,1.09,1.47,5.49,3.31,10.54,5.38,2.52,1,5.21,2.13,7.73,3.27a44.25,44.25,0,0,1,6.68,3.64c1.7-.07,4.45.27,3.61-1l-2.65-.79c-1.68-2.58,5.7-.21,2.79-2.31,3.88.3,8.45.14,12.88,3.07l0,2.63c.18-.7-2.57-2.66-4.21-2.54,2.43-.16,6.07,6.15,9.52,4.11l-2.7-3c3.91.3,9.2-.34,13.11,2.29-1-3.08-1.08-.18-3-4.12,1.25,4.33-10.88-4.73-8.1.45-1.83-4.33-4.84-3.55-7.84-7.84-.18.8.85,2-2.59.16a4.38,4.38,0,0,1-1.06.33l-.22-.16.16.17c-.2,0-.22.06.06.06a4.49,4.49,0,0,1,1.36,1.9c-2.5,1-8.17-1.47-10.46-1.39-2-1.25,1.24-.49.4-1.77l-3.42.12c.4-1.77-4.58-5,.88-4l-4.53-1.87c-2.31-2-5.86-3.83-8.42-4-2-1.21-6.16-.29-3.77-.86l-7.55-1.78.09-.45a38.66,38.66,0,0,0-5.48-1.81c-1.92-.47-3.88-.9-5.83-1.42a27.49,27.49,0,0,1-11.33-5.52,28.06,28.06,0,0,1-9-2.81l-.26-1.75c-3.25-.65-8.8-4.68-10.66-3.63-2-5.1-14.8-6-20-8.6l-.84,1.86c-3.74-1.34-7.57-1.91-12.51-2.62l-.26,1.8c-4.48.13-10-4.49-16.48-6.33.63-.52,2.2.16,3.23.92a12.68,12.68,0,0,0-5.49-3.08,34.09,34.09,0,0,0-6.25-.87c-4.23-.31-8.39-.45-11.49-2.87a6,6,0,0,1-4.22-1.23,1.22,1.22,0,0,0,.46,0c-.18-.07-.44-.15-.71-.23-.69-.51-1.39-1.09-2.17-1.61a9.94,9.94,0,0,0,1.78,1.51,32.33,32.33,0,0,0-5.57-.86l-.34-2.1c-.17,0-.3-.07-.48-.08-1.78-1.25-1.82.44-1.15,2.12a11.29,11.29,0,0,0-3,.42c-.8-3.41-5.55-.35-6.89-4.12-1.77,1.22-10.43-1.43-12.33,1.59,0-.45-.5-.81.59-.55-2.14-1-4.29-1.91-6.53-1.5l-.36-2.62c-1.89.64-3.78,1.29-5.69,2-2.63-2.14-3.68-3.27-.26-4.42-7.86,1.18-6.09-.27-12.83,1.13l.65-1.47c-2.2-.44-6.15.83-7.17-.75-2.12-2-8.11-3.59-15.15-5s-15-3.11-21.07-5.74c.8,2.53-.57,1.73-2.29.72s-3.8-2.11-4.37-.38c-.54-1.21-2.21-2.12,0-2.72-6.67,0-9.46-3.36-14.44-1.1-.56-1.22,1.65-1.37,1.1-2.12-.56.14-2.22.6-2.79-.17s1.1-.75,2.21-1c-6.68-.93-7.88,2.31-8.85,5.38-3.11-2-4.82-2.15-7.56-.39-1-1.19-2.81-2.54,1.37-2.34-2.29-.47-14-3.45-14.55-.95-.64-.74-3.22-.63-3.87-.42a100.94,100.94,0,0,0-10.76-1.61l1.37.61c-2.38,2.76-4.33.15-8.5.06l.15-.3c-4.61-1.64-5.67-1.49-6.7-1.37s-2,.15-6.59-1.54l.32,2c-1.27,4-8.05-3.23-13.64-2.13l1.87,1.26c-3.08,1.15-7.85-6.25-10.82-7-.63-.41,1.07-.5,2-.69-7.69-3-1.21,2.43-7.1,2.56-1-1.43,1.64-3.36-2.29-3.86-1.92-1.19-11.71,3.65-16.94.84,1.13,1.09,2.25,2.18-.5,2.85-4.17.21-11.11-4.48-15-1.26-.52-.3-.72-.58-.73-.84-3.21.77-10.39,1.15-12.34,2.88-1.41-3.34-6.39-2.56-11-1.73s-8.76,1.79-8.74-1.27l-9.81.42.25-.62c-6.28-.34-8.47,1.26-10.62,2.76-1.46-.38-.42-1-.31-1.3-9.18-1-10.12-.65-17.63,2.73l-.89-1.94c-2,1.19-13.41-2.39-22.23.54a1.55,1.55,0,0,1,.92-1c-5,1.58-11.09.68-16.41.38s-9.77.06-11.23,3.84c-2.15.8-4.3,1.62-6.43,2.49,8.6-.45-.92,3.26,2.72,4-3.29.82-8.9-1.13-4.83-2l.69.28c1.08-3.92-10.77,0-10.86-2.62-16.79,2.38-33.47,3-49.19,5.76l2.34,2.52-5.47.91c-1.55-.38-2.36-1.86,1.56-2.52-2.37-1.22-6.26,2.67-6.24,3.31-7.84.36,2.3-3.94-.05-3.54l-3.13.85.79.19c-2.33,1.7-2.31,2.93-7,3.83-3.07.07-1.9-1.43-3.08-1.29,0-.2-.45-.21-1.8.31l-6.9,1.27,3.25,1.65c-2.78,1.76-6.43,1.34-2.71,3.15-2.75-1.43-9.17-.23-15.29,1.23s-11.86,3.45-13.44,3.21a25.5,25.5,0,0,1-6,3.14,61.89,61.89,0,0,1-7,2c1.41.1,2.88,2.38-1.58,3.33,0-2.78-2.14-2.81-4.9-2.36s-6.1,1.26-8.45,0c2,.73-1.1,1.85-3.9,3s-5.28,2.5-2.27,3.39c-3.75.8-.84-1.83-4-2.11-8,4.8-19.46,5.17-29.78,9.83.09.72,2.22,1,.34,2.9l-6.81-1.16c-1.95,1.14-.44,4.48-5.1,3.73.75.33,1.87.84.57,1.61a97.65,97.65,0,0,0-15.83,5.35c-2.57,1.12-5.12,2.31-7.67,3.51s-5.09,2.42-7.61,3.71-5.07,2.51-7.63,3.69l-3.87,1.73c-1.29.59-2.59,1.15-3.89,1.69a94.1,94.1,0,0,1-16.37,5.11c3.32-.2,1.59.86-.45,2,1.49-.41.78,1.55,1.48,2.26l-9.54,2c-.23,3.16-8.71,5-8.34,7.72l2.37-1.83c-2,4.51,8,3.14,9.33,6.79a4.49,4.49,0,0,1,2.93-2.43,32.12,32.12,0,0,1,4.64-.9c3.34-.54,6.88-1.38,8.93-5.2,1.75,0-.63,1.72.52,2.12.85-2.29,2.67-3.54,6.62-4.67l-.23.56c2.49-1.34,4.68-2.39,6.75-3.28s4-1.56,6.05-2.24l6.41-2.05,7.9-2.6L525.64,798a12,12,0,0,1,4.74-.62c1.72-3.89-7.1,2.92-5.76-1.12,2.45,1,6.86-.88,11.18-2.68s8.6-3.28,10.55-1.72c3.89-1.57-2-1.57,1.94-3.14l1.47.68.42-1.82c2.65-.79,4.5.12,5,1a11.41,11.41,0,0,0-2.3,1.28c3.83,0,9.2-4,10.51-4.06l-4,.76c10.28-5.22,24-8.28,33.78-14L592,771.9c7.57-4.19,6.78-1.11,15.43-4.62l-.26.31a14.22,14.22,0,0,1,6.27-3.14c-2,1.65,4.82.74,2.18,2.7,8.34-4.23,4-2.61,8.94-7.45l1.75,1.07c1.65-1.82,1.64-2.55,6.06-4.11-3.38,2.21,3.44,1.42-.26,4.15,5.12.31,8.4-1.4,11.14-2.68s4.87-2.29,7.59-.51c3.41-5-8.75-.23-6.51-1.67-2.37-.81,2.88-3.86,6-4.18,3.07-.67,6.37,3.91,14,2.14-.76.15-.75.47-1.51.62,3.08.41,5.3-2.67,9.18-1.69,1.48-2.83,4.61-.78,4.55-4L669.63,751c3.83-1.6,6.88-6,13.85-5.55A12.13,12.13,0,0,1,680,748.1c2.11.54,3.6-1.38,5.79-.79,0,3.18-8.46,2.38-12.26,5.59,2.32.9,7.64-3.86,6.16-.07,1.12-2.45,3-2.69,5.25-2.86s4.7-.17,7-2.28v1.93a11.57,11.57,0,0,1,3.86-1.85l-2.32,2.91c3.85-2.83,8.43.34,12.29-1.4-8.48,1.42-2.28-2-6.1-2.73,10.11-4.19,6.84,3.9,18.41,1.2-1.55.46-6.13-.2-3.78-1.48,2.29,0,5.36.37,6.87,1.15,7.74-1.47-1.47-1.77,1.69-3.38,3,1.92,3.7-1.47,7-2.68l.28,1.91c9.07.12,1.86-4.29,10.1-3.78l-3.08,3.07,4.11-1.19-.61,2.28c4.36-2.16,5.83-1.93,10.37-1.75-1.19-1.25.21-3.54,4.18-4,2.82.86-1.33,2,4.27,1.13-1.16,1.33-2.4,3-5,1.46-.18.65-1.12,1.33-1.32,2,3,1,7.32-.43,9.35-.65a6.76,6.76,0,0,1-2.23-.23c2.62-1.19,5.26-2.25,7.91-3.37,1.35.61.37,1.28-.59,1.93,1.64-.34,2.71-1.32,5.12-1.69-.5,1.62-.23,3.22-3.59,4.24l7.61-2.37c.57.62,4.12,1.59,3.15,2.23,4.34.67,10.34-3.75,16.13-2.8a3.9,3.9,0,0,1,2.07-.92c5.39.14,10.2,1.77,16.5-.51l3.69,2.71c5-.77-5-3.41,3.3-4.69,5.88-1.05,2.25,2.34,4.32,3.09,2.89-1.45,8-4.38,13.4-2.14C837.55,737.84,836.14,737.43,834.47,737.66Zm61.64.46c-1.22.33-3.67,1.43-4.47.24C893.12,736.24,894.12,737.36,896.11,738.12Zm93.92,6c-1,.48-2.29-.06-3.72-1A8.15,8.15,0,0,1,990,744.09Zm257.35,59.08-.16,0C1245,801.52,1245.76,802.15,1247.38,803.17Zm4.92,2.84c.63,0,.69-.3.57-.64-.55.31-1.74-.12-3-.78C1250,805.21,1250.57,805.8,1252.3,806ZM660.07,739l1.18.26C659,740.3,659.52,739.66,660.07,739Z" transform="translate(-0.03 5.8)"/>
    <path class="cls-2" d="M979.09,745a1.8,1.8,0,0,1-.35-1.11C978.22,744.12,978.16,744.49,979.09,745Z" transform="translate(-0.03 5.8)"/>
    <path class="cls-2" d="M796.25,739.76h-.19a.75.75,0,0,0-.17.35Z" transform="translate(-0.03 5.8)"/>
    <path class="cls-2" d="M1165.39,791.44a5,5,0,0,1-1.77-1.66C1163.41,790.21,1163.78,790.76,1165.39,791.44Z" transform="translate(-0.03 5.8)"/>
    <path class="cls-2" d="M1281.09,814.44l-3.52-.93a6.33,6.33,0,0,1,2.75,1.84C1280.42,814.9,1280,814,1281.09,814.44Z" transform="translate(-0.03 5.8)"/>
    <path class="cls-2" d="M1304.85,837.92c.58,0,1,.43,1.6.42l.24-.88C1304.63,836.61,1302.9,836.64,1304.85,837.92Z" transform="translate(-0.03 5.8)"/>
    <path class="cls-2" d="M1281.64,821.62c-.38,1.6,1.92,2,4.34,2.72a2.54,2.54,0,0,1-.41-.18C1287.15,822.39,1284.41,822,1281.64,821.62Z" transform="translate(-0.03 5.8)"/>
    <path class="cls-2" d="M1286.53,824.53a11.25,11.25,0,0,1,2.14.9C1289.31,824.72,1287.89,824.88,1286.53,824.53Z" transform="translate(-0.03 5.8)"/>
    <path class="cls-2" d="M1259.31,807.7c1,.85,1.48-1.63,1.86-.76C1263.18,805.55,1252.86,806.17,1259.31,807.7Z" transform="translate(-0.03 5.8)"/>
    <polygon class="cls-2" points="1281.37 833.13 1281.34 830.94 1279.4 831.88 1281.37 833.13"/>
    <path class="cls-2" d="M1263.7,818.31l3.49,2.06c.07-.33.62-.32,1.25-.22C1266.19,819.14,1263.84,817.72,1263.7,818.31Z" transform="translate(-0.03 5.8)"/>
    <path class="cls-2" d="M1268.44,820.15a8.31,8.31,0,0,0,3.11,1A19.08,19.08,0,0,0,1268.44,820.15Z" transform="translate(-0.03 5.8)"/>
    <polygon class="cls-2" points="1276.08 831.56 1275.15 830.72 1272.6 829.49 1276.08 831.56"/>
    <path class="cls-2" d="M1223.81,801.9l-4.32-1c-.66.48.31,1.29,1.94,1.6C1222.58,802.44,1224.2,802.76,1223.81,801.9Z" transform="translate(-0.03 5.8)"/>
    <path class="cls-2" d="M1234.13,811.87c-1-.82-.86-1.27-1.24-2.13l-1,2.27Z" transform="translate(-0.03 5.8)"/>
    <path class="cls-2" d="M1222.09,807.74c-.66.48-6.64-.34-1.4,1.42C1221.35,808.66,1225.61,809.75,1222.09,807.74Z" transform="translate(-0.03 5.8)"/>
    <polygon class="cls-2" points="1161.09 788.66 1162.16 788.96 1163.27 785.04 1161.09 788.66"/>
    <path class="cls-2" d="M1103,775.55c4.68,2.36,1.84-2.09,6,.37,1.42-.59-3.38-2-2-2.47C1103.71,773.58,1102.3,772.57,1103,775.55Z" transform="translate(-0.03 5.8)"/>
    <path class="cls-2" d="M1107,773.45a13.37,13.37,0,0,0,1.69-.15A5.75,5.75,0,0,0,1107,773.45Z" transform="translate(-0.03 5.8)"/>
    <polygon class="cls-2" points="466.85 814.34 463.48 815.24 466.05 815.37 466.85 814.34"/>
    <path class="cls-2" d="M462.68,814.31l-2-1.87-.61,3C460.71,815,461.89,814.08,462.68,814.31Z" transform="translate(-0.03 5.8)"/>
    <path class="cls-2" d="M904.89,743.93l.29-.6c-.46-.72-1.22-.83-2.75-1.05Z" transform="translate(-0.03 5.8)"/>
    <polygon class="cls-2" points="860.44 745.7 861.2 745.77 859.82 743.39 860.44 745.7"/>
    <path class="cls-2" d="M823.1,742.83c1.52,0,3.31-.49,4.84-.4C824.63,742.87,822.63,739.91,823.1,742.83Z" transform="translate(-0.03 5.8)"/>
  </g>
</svg>
